<mxfile host="app.diagrams.net" modified="2023-10-10T13:32:59.495Z" agent="Mozilla/5.0 (Windows NT 10.0; Win64; x64) AppleWebKit/537.36 (KHTML, like Gecko) Chrome/117.0.0.0 Safari/537.36" etag="tLo_HDbKzvg6dsYzC1jQ" version="22.0.4" type="github">
  <diagram name="第 1 页" id="uiqjMwQ-EifHXLQVDhQo">
    <mxGraphModel dx="989" dy="1686" grid="1" gridSize="10" guides="1" tooltips="1" connect="1" arrows="1" fold="1" page="1" pageScale="1" pageWidth="827" pageHeight="1169" math="1" shadow="0">
      <root>
        <mxCell id="0" />
        <mxCell id="1" parent="0" />
        <mxCell id="MsKxK5CXQ0qDN3r8Epf7-44" value="" style="rounded=1;whiteSpace=wrap;html=1;arcSize=9;dashed=1;fillColor=none;movable=0;resizable=0;rotatable=0;deletable=0;editable=0;locked=1;connectable=0;" vertex="1" parent="1">
          <mxGeometry x="540" y="-20" width="200" height="360" as="geometry" />
        </mxCell>
        <mxCell id="MsKxK5CXQ0qDN3r8Epf7-26" style="edgeStyle=orthogonalEdgeStyle;rounded=0;orthogonalLoop=1;jettySize=auto;html=1;entryX=0;entryY=0.5;entryDx=0;entryDy=0;" edge="1" parent="1" source="MsKxK5CXQ0qDN3r8Epf7-10" target="MsKxK5CXQ0qDN3r8Epf7-24">
          <mxGeometry relative="1" as="geometry" />
        </mxCell>
        <mxCell id="MsKxK5CXQ0qDN3r8Epf7-10" value="Signal Energy" style="rounded=1;whiteSpace=wrap;html=1;fillColor=#f8cecc;strokeColor=#b85450;fontStyle=1" vertex="1" parent="1">
          <mxGeometry x="312.53" y="102.5" width="120" height="30" as="geometry" />
        </mxCell>
        <mxCell id="MsKxK5CXQ0qDN3r8Epf7-29" style="edgeStyle=orthogonalEdgeStyle;rounded=0;orthogonalLoop=1;jettySize=auto;html=1;" edge="1" parent="1" source="MsKxK5CXQ0qDN3r8Epf7-11" target="MsKxK5CXQ0qDN3r8Epf7-25">
          <mxGeometry relative="1" as="geometry" />
        </mxCell>
        <mxCell id="MsKxK5CXQ0qDN3r8Epf7-11" value="Signal Similarity" style="rounded=1;whiteSpace=wrap;html=1;fillColor=#f8cecc;strokeColor=#b85450;fontStyle=1" vertex="1" parent="1">
          <mxGeometry x="312.53" y="180" width="120" height="30" as="geometry" />
        </mxCell>
        <mxCell id="MsKxK5CXQ0qDN3r8Epf7-15" value="" style="shape=image;verticalLabelPosition=bottom;labelBackgroundColor=default;verticalAlign=top;aspect=fixed;imageAspect=0;image=data:image/png,iVBORw0KGgoAAAANSUhEUgAAAXYAAAEMCAYAAADQ553CAAAhm0lEQVR42u2d76tWVZvH+wt687x5XvSiV0FNFKIgHkR0RA6iOAk9R6RwJEQ8IwqO4RSOo6I4YuAEByN64Q+iRihEjKiITBQhnzAkJKTGDEERxRGRzoQYe/ruuk7r7LP277Xve+/7/nxho+f+sb/3Xnvtz177Wtda67EIIYTQQOkxigAhhAA7QsjVrl1R9OSTf25r11ImCLAj1GkJ5I899ucG2BFgR6hD+vLL3+H9Wyt916c/RgsPXYyO/MPoNLB/Of+f4vdiHTnyeyte30MIsBfTrVu3oi1btkSPHj3ibKLeQP2Pbde8NdFj//rFDLDrb72+a/V//Pk6cEeAvZgmJyej1atXR0899VT08OFDziZqTteuTQ+3OHD3gX3t6LaZnxfcEQLs2S31sbGxGOqAHfVE6iT1wP3a43/N/HtqU1gGIcDu19GjR6PZs2dHc+bMiVasWAHYUW+4/umPcQvdC+2c7ci//CcFiAB7lmbNmhVt2rQpbrVv374dsKOe6Mm953+PnZeEu8Iy+i5CgD1DV69enfo/YEfNN9V3xSmMip3bVhTqCstMfUdpkLZVfWL4bTvy95ucEzR4YHcF2FHzTfUnK4VfUrcSnagCuZ4SfJueAq7d/T/ODwLs1tnKxlZ0Cwr1P7Y8zyfmLU8FenL7y/ItnKdBr4OAPR/sTQuPAfPocYv9y//538JQt21qQBTnHQ/AToXCo0g85PcYu0aUWrw8NaXRlxGTjLFrfxnSaFZf2EWvP/63vanv64bAeccDsFOh8CjD9z/i3d7BRxmbsmiKtqjVMZqE9tr//m7Gsfhi76EybzjvgB2wo6FSnI9eJfyS00o3CeIurNU6L3MTQIMnwA7Y64PrN1jY5Fb2+C/YkGIX/T5ytM7I0wJwt1x52/LKPfn5UOEYBNgB+4DIF7slvc69WvyDj3xzxaQOYtKcM1kWiTK38rYbrm0G8OQ5C9mJigD7QBfSoKtMFobgPtTwcKfn/ff/yp62Nzm3TIHZHZPlbQBPhmgs7l62hY8AO4U0LKwqmVrXpZa7tXCDhpOSE3plLbRhcC84ZW9aCzwN7GktfATYKSTCL95WuVqLgqHvM1mdem14Akm2ZJO/PSgA81ZQygm/TNtVAuB2E/WB3XdeEMwC7EOuvNS6ZMs3LUzQthZ6r0NK1zb/W9xhalvdpfF8vzXrRkV8HWYBdsCeCva8VnjbO+qKQj30oJ60MEmvjqPtT1AIsAP2HioJpDxQJ4HTJpikdQBby1zH6mv1hhjUExrsvn324gaFADtgHwAlW+DWuZiWWle2hd/PY0kLFflaw3WfPJoAe9GWOy11mAXYAXuhFnsaqJoCWAiVif8nbwJ14dh0ufieNoY+7RRmAXbAXqxFmJWB4YNnW3Kmyw6tT4Zt6oZjenHDa/NNFQF2wN4i+eLSar36WrS+UEdbcqbTQkRpISXfTarOsQB2BNgBe6tb7UW3NoElrQWeBcOQ+d+AHQF2wN46FcmRbmJ62JDyxdjTYBg6uwewI8AO2DsN97am1vl+Z9G+grqQBOwIsAP2zoZl2pyF4etA9cHe93rdGxVgR4AdsLdeodMB+/W7e7VWKGBHgB2wt15dhkiZ/oJQNyzAjpp6grbGirvoTZEMLsCOBg4iRTJ9QoaVADvqZf0tMjgNsKOBhIhv6l67IELn3wN2FEplwolZ2WmAHQ0sRHp1HIAd9RrqefUAsCPADthRC54w00KGT8xbHr+fFqLxZXUBdgTYATvqs3xhQwsZJpmV/KwvCQCwI8AO2FGfldUKTzKryCR2gB0BdsCOWgb2PGblhWMAOwLsgB31UWktcJud9C/Lt8yYnTQZjgHsgB2wA3bUgRZ7ndlJATsC7IAd9VnJFrjOb9HZSQE7YAfsgB21UMkcdoHeB3sf1H11AbAjwA7YUQvDMUU3774AOwLsgB31X0Wmni465TRgDyQbGaYLzmZh04lqy7qggB2wo/arzFKVWROBAfYAyprjochMbIAdsAN2VIYpeQ1GwN6ju2tXFqvoFUQsR9d9ugm95B5gR11W8pyXYQhgrxF6CTUT2zCBPe9mqMobKnwF2NEggb3MOQfsFeVbqcfCLmp9Jk9KqPU1uwz2otOShgpfAXYE2AF75QLP6sjwzdo2jGAvO9e0yqkLi0wDdgTYBwTsvoEDZUI2bc+UCQ2RtPCLXrdMorQnIMAO2AE7YO8J2MuCOtlabXs4JjREisbRfTeAOmUF2Nsn6zDXTdtGUnYhPAnYhxDsJsv0sM0qbBLsbU9/DAkR36CLrAs5ZFkB9vYoLxQXstMcsAP2IGA3UKWdiGSYQbAbVrDn7SsZuqqTJgrY+68y2WO6Ttp+bQD2AQZ7svVhBe47EcMeY0/uy1rgaU83yRtnnTg7YO+/yqYEFxl806awkvURtW0cBmCveEJ96Xm+AQW+TsFBbinklZW1wNM8ki18Wuy98bDYt1un9XedUJgv/GLXiiCoc+27Ptp809Lv9v3mto3DAOwVlZbFUXXSnkEFu291GFX8NI+0pyHA3oxHkdHTVVrRvr6VtN8cutO8yRZ6V8ZhAPaKqjITW91pBdxh+E1mFTSdFWOtwbyFBer2RwD28i3qUPHv5PWRF1JrIsEgZHikzPQhbRiHAdh7dLLr5mTnPQ2EzLTpVR570zdCwB62YVKm5Z7Wt1I2ZFe3nEK0otM6gN0QbNvGYQD2hsIyoaBb5gIM0UpoQ+sw1OM4YC/+FGX11MrcpqGuerNNnm9r7ad1mtftWynaeKgSA/fVXV/d9P2GfqXrAvZA8nUE1e1IqTLRWIgpC5oCVZE+iJApoYC9eGMh7SZaNf6d1mJPO446x1clTFLnJlhmHEa/Ov8Be4svcF9LwTIVmswq6OfsjiHT3QB7mH1VGTntyxzL8q461iMrTOJbN7Rs+flugmV+T7/SdQF7h1pVaY91voVw68CxF6DytWyYj703HmUhWqVj0wdcXwe59u1rwBStv77v+n6fbzK+IvUtLURUdBxGnXErgH0AwV52kv2uzbEySIN6unYsaXUlDVZVvdM6MkOtW+C7eWTV+yTcq9yg8p48fOVLix2w97RVBdiH81jS6koTU2KU6VcpG7oom1JZNfPGd/NIK6tQ2T2AfUDBXrZVlaxQbR/YA9j751Em/h1iSoyicC+b1ZU1etl3jVSNf/t+Z5p3yP4uwD6AYE9LFyuaVdD2gT2AvX8ePlj7Bo2FzM3O6zSvcjx1p6soGiYpknKcdvPqV18XYKdVBdiH8Fiqxr/rdnD7Os2r1tWy8e86ZVhlHEbdlF3APoBg98E6baIxX6UDuoA9VIgkpGfTA61810ha46dsP1SZ8qo7ahqwDyjYq7YS+t1SAOzdOpaidSzUlBW9uEZ8qY2hwiRFxmG0oawAe8svvl7PrwLYh+9YsmAVapqKNl0jdRs/vql7QwIdsA8B2PPmfw49nQBgp7y65lF2QrNhaPwA9gFoVbV9dkfAjkfTHkUbQG0NKQH2IQV7WkwxROsDiHAsg+IhcPvCJNaBOixlBdi5MPDgWPAA7ICdCoUH5YUHYAfseAB2PPAA7IAdD8COBx6AHbDjAdjxwAOwU6Hw4FjwAOyAnQqFB+WFxyCA/d69e9GePXuixYsXR/Pnz4++++53g7feeguwU6EAO+WFR9fAfvDgwRiG7iaw37lzJ/7/3LlzATsVCrBTXnh0BeynT5+eAXUD+/fffz/19yuvvALYqVCAnfLCowtgHxkZiUG4cOHCuIV++fLlKbBLmzZtmoL7w4cPATsVCrBTXni0GewCtUFbMXZJQHfBLj399NPxa7dv3wbsVCjATnnh0WawP3jwYArsk5OTqWB/9tln49fUogfsVCjATnnh0fJQjIH9wIEDXrArK4ZQDBUKsFNeeHQI7Bs2bJgC97x586Jly5bF/1+xYkWc9mjvKQ2yKwLseHAseAw12KXnnnvOmxnjbhaDB+xUKMBOeeHRAbAnW+7uphb8/fv3oy4JsOPBseAB2P/Qr7/+Gt24cSO6evVqdP369akO1a4JsOPBseAB2AdMgB0PjgWPoQa7RpcW3QA7FQqwU154dADss2fPzu041aZBSoCdCgXYKS88ADtgxwOw44FHr8E+Pj4evfzyy9O21atXR2NjY9Ho6GgMSWXMqEMVsFOhADvlhUcHwJ6nkydPxqB85513ADsVCrBTXngMAtgNlE3CErDjAdjxwKOHYHdngGR2RyoUYKe88OgA2BU7921Kb/z222+nzRfD7I5UKMBOeeHRAbAXzYrRfDJl9dVXX0Xbt2+PXn311ejo0aOlpia4ePFiHN/3bXk3GMCOB8eCB2AvAPazZ8+W+sG7d++Ov7d8+fJo3bp1cbrkggULops3bxb6vpbiS/stX3/9NWDHA7DjAdjTtH79+ji90bcpFVLhmLJzxpw5cyaG6/79+6de++GHH6I5c+bE6ZRFpMU9BHdBPLn9/PPPgB0PwI4HYO+l1EJX6Ca5MMfExEQMXUE+S5qITJ9T+KaKADseHAseQwV2rYxUdSuqZ555Jtq4cWNqS/69997L/P5nn30Wf06fB+x4AHY88MgA+6NHjwrF0+tMKWDrqKrTNCl1nqa95+rNN9+MP6dl+ZYsWRJ7a3UnLd+XF4YB7Hhw3vEA7IHBrkwYfV6dp0lZTvy2bdsy96HWvj63cOHCGPIKySjmr9dWrVoVzxsP2PEA7HgA9j/k64wsuhXR+fPnc8G+devWzH3s3bs3eu211+LWv6udO3fG33/33Xdzwe5uVCg8OBY82uYhNj3+t73d6DzVwKY0sP/yyy/xe4J2Fd29ezf+vi9+T4sdD8COx9C22JtWVrjl2rVr8XtvvPFG5f0rDVJZN4AdD8COB2DPka11qlREbTa1gP5/4sSJaNGiRYUNNQ2BYuJJWbaL/k3TrVu34puCL9yijlN9f/PmzYAdD8COB2BPk+LY6hgNudCGYuT6jlroriy/PSuzRR2jzz//fNxxqtCNK00drP1qWgHAjgdgxwOwp2jx4sXBV1BSq3vWrFnxvjUVgQC/Z8+eqRRG07lz5+LP7dixY9r3Dx8+HH92zZo10YULF+InB31PrxUZuQrY8eBY8BhasKt1bOC2PHFLM1QWjKUYastLMUxKk3i5Nw0NWlLqoisbsOSLxyvF0Z3HRjcW5b+Tx44HYMcDjwywW8xam828KKjrb+W8S5pJUX/7YuZFpBi9ctttf2Wkm8mVK1fiVnuZ7wN2PDgWPIYW7DZKVJvN66JJwfS3OlNNNid7MubdVgF2PDgWPIYW7O5IVLWqJV8eulIM9Zpi54CdCgXYKS88Wgx2aWRkZAruly9fntaK11zqbpy7zEIZgB0PwI4HHn0Cu00B4LbIly1bNiMrRjeArgiw48Gx4DHUYJcuXboUr27kdlAqS8agrlZ7V+LrgB0PzjsegD1Dyoi5fft21DUBdjw4FjyGBuxqkSud8dSpUzNWNxokAXY8OBY8hgrsbtx8dHQ0DsMAdioUHpQXHgMCdnfTAKTr168DdioUHpQXHlHHYuyaWVEzNaYBXhNwab70LsbWATsegB2PoQS7aXJyMvr8888zIa/MmEOHDs1YyQiwU2kBO+WFRwvB7kqpjKdPn86EfJn52AE7HoAdDzz6DPYk5DXrYnI63zLT9gJ2PAA7Hni0COzKXd+3b180Z84cwE6FwoPywqOrYNci0QcPHozmzp2bGorRDI+AnQoF2CkvPFoM9nv37kUTExPTJgFLbppKYP/+/TH4uyTAjgfHgsdQgV3Lztn86r5NKx2Nj49Pm4+9awLseHAseAwN2LMGKC1dujReW3QQBNjx4FjwGFqwK4VRGTBVlq0D7FRawI4HHi0Bu2Lqx44dK7QoNGCnQuFBeeExYNP2AnYqFB6UFx6AHbDjAdjxwAOwA3Y8ADseeAB2wI4HYMcDsAN2KhQeHAsegB2wU6HwoLzwAOyAHQ/AjgcegB2w4wHY8cADsAN2PAA7HngAdioUHhwLHoAdsFOh8KC88ADsgB0PwI4HHoAdsOMB2PHAA7ADdjwAOx54AHYqFB4cCx6AHbBTofCgvPAA7IAdD8COBx6AHbDjAdjxwAOwA3Y8ADseeAB2KhQeHAsegB2wU6HwoLzwAOyAHQ/AjgcegB2w4wHY8cADsAN2PAA7HngAdi5wPDgWPAA7YKdC4UF54QHYATuVFrDjgQdgB+x4AHY88ADsgB0PwI4HHoAdsOPBseAB2AE7FQoPygsPwA7YqbSAHQ88ADtgxwOw44EHYAfseAB2PPAA7IAdD44FD8AO2KlQeFBeeAB2wE6lBex44AHYATsegB0PPAA7YMcDsOOBB2AH7HhwLHgAdsBOhcKD8sIDsAN2Ki1gxwMPwA7Y8QDseOAB2AE7HoAdDzwAO2DHg/OOB2AH7FQoPCgvPAA7YKfSAnbKCw/ADtjxAOx44AHYATsegB0PPAA7YMcDsOMB2AE7FQoPygsPwA7YqbSAnfLCA7ADdjwAOx54AHbAjgdgxwMPwA7Y8QDseAB2wE6FwoPywgOwA3YqFGCnvPAA7IAdD8COBx6AHbDjAdjxwAOwA3Y8ADsegB2wU6HwoLzwAOyAnQoF2CkvPAA7YMcDsOOBB2AH7HgAdjzwAOyAHQ/AjgdgB+xUKDwoLzwAez/01VdfRdu3b49effXV6OjRo9H9+/cBOx6AHQ88ugr23bt3x4Bevnx5tG7duujpp5+OFixYEN28eROw4wHY8QDsXYP6mTNnYjjv379/6rUffvghmjNnTvTyyy8DdjwAOx6AvWtgVwv9ueeeix4+fDjt9YmJiRjagjxgxwOw4wHYO6Rnnnkm2rhxY2pL/r333gPseAB2PAB7V/TgwYMYzOo0TUqdp2nvAXY8ADsegL2lUiaMwKzO06QUmtF727ZtywV7U9sT85ZHf1m+ZWr76z/+Mx4D7kF54dELj12f/hgd+fvNwQT7+fPnc8G+devWCCGEhlmdAvv333+fCvZffvklfu+1117jrCKEAHtXlBVuuXbtWvzeG2+8wVlFCAH2Lmn+/PnR6tWrZ7z+2WefxWDXvwghBNg7pL1798YAVwvdleW3//zzz5xVhBBg75Ju3boVzZo1K1q8eHF09uzZGPB79uyJYf/WW29xRhFCgL2LP/rixYsx2C0tSIOW3nzzTc4mQghFHZ+2V9MHKLf90aNHnEmEEBoEsCOEEALsCCEE2BFCCAH2oZcyd7Zs2RI89v/rr79GH3/8cTzRmQZpHTx4MB6NG1ryOXHiRDyKV9vx48fjkb1N6vDhw/EWUupkP3nypHe7c+dOMJ+rV6/G50LnRBla3333XbDzkPb7bbtw4UKw4/j888+j119/PV6VTBlmt2/fbuRcnzp1Kq5XKq+QdSvvuqu66lqVa7sOA7K+W5QBgD2wJicn4wFUytZJzhlfR6qEK1eujPerf8fHx+PFRYpMVVxGmkFzbGws3q/+Xbt2bbxC1cKFC+MK14ROnz4d+8krpF555ZXUCZa+/vrrIB7vv/9+XD4aOLdhw4ZoZGQk3v+xY8dq79tGWmdtvimsq2j9+vXx/pYtWxYfhzLNVL+++eaboHVr1apVsc/SpUvjOvzss89GS5YsiW7cuNHodVdn1bWy13YdBmR9twwDAHvglrpBMTTYd+zYEe/ziy++mHpNg7FeeumlQguMFNW+ffvi/alVYLp8+XJ8oeuCD627d+9G8+bNawTsgobgLogntxAD2VQuBlc717owVQcEjrqwUuvM99u1CVDPP/98kKeDDz74YMaqZPrtc+fOjaEbSmqly+edd96Zek1PBUpd1vE0dd3VXXWtzLVdhwF53y3DAMAeSHq0mz17dlxZVqxYERTsusANUklZpXUvljoSZF988cUZrwtegntoqaWo8lK5hQS7wKRy0XlpSps3b47PuVqirjRwbs2aNcGeCnx1Tcf24YcfBtmfZkTV/pIhEQNxiJCMwgq62anFnpQaEfJRXW7iuqu76lrRa7sOA/K+W5YBgD2QNBp206ZN8V1X8a+QYNdFoTlwfKCwqYwVawslX8xTF6RaiCH17rvvxpVVo4fVOgwJdps7qAosyjwR5M3/H1rXr1+PIRWyrKy+at9FgF9FCuloXzt37pzxnvo79J6eFpu47uquulb02q7DgLzvlmUAYA8kdaAlL5SQoZi80Ik6hpqQLmpr2Rw6dChoeQlQ1qIODXaNRLZpJhROUGtRTyMHDhwIEoZRbFb7181JLT51Oqo1pbjnRx991Nj51v51LG59qyuFc+xmoeOyTlsdnzrxQnmkgV3Hovf0BBT6ugux6lrRa7sOA+p818cAwN6AegX2c+fOxT5F44RVQg2CSNWLLiu0pMdN93eHBrtaaPrd6vQV5HUDsU4pPX3oN9SRwi22NoCgqNioykh+VVufebpy5Uq8b91EQkstQbUa3Y5ZtSDrlpN7zlVO6jRN7lMhhBAdwb7rLsSqa1Wu7ToMKPPdNAYA9o6CXSdUF8qiRYuCpu65UiqaWp9KD9PxqPM0xIWuOfMVT3SzbEKDXbOAKkacjH+rxWgt7Tqyx3htyoxxYaH4ul6/dOlS0PNh5yFka93gp/MxOjoaH4ti3hZfD3kTUahA+1S/im5SajErDKJznxYuqXvdhV51rU1gz2IAYO8g2PWYrJa0QgxN5RqnXZQuxKpIedfaj3KZXYUGe5qUhROidWgtdl9Hs7WsfTCpKt2gBL/QT2e6USvtT08aybzut99+Oz4O1bfQ14ZtOu8GqLrLWvquu9CrrrUF7HkMAOwdA7tStrRvpThVGWBRF4h1Lz7LkVarzd3UEamLXP8PleGTJnkpU6KObMWutPIIGZ+2CzlkJozp22+/nZEKaLJMlpDHYWX3ySefxAOidI0YYPWUFfq6C73qWhvAXoQBgL1DYLf9CiZNzGipxzldxL4sgXv37gUBuzpik1APDXaFeHQh+8It6jgN0Weglq5uUL6nDPMIuf6uzov2qfMQUpatkpZVJbAr1h5CepLx5d2HWv0s7boLuepav8FelAGAvSNgt8diX1ZByMdywVUDRpKVxjq46oZi0hQyFKPjUGqmwgvJVD07jhDhBYFb4Euu5qVRp6FTLRUuUcdjE+dcnaYaIJTsP9FAmJAL2LzwwgveAU/qzNb5r3u9pF13IVdd6yfYyzAAsHcA7GpJq0Vrj5S+LdQjujpMrYNLmRLqqNOFbfHkpua+Dx1j17wz+s3qyFRc3z2OUHFq5X1rQImgqw5HDYrSU4Jg4Yu9V5WFE0KHREz6zTbyV52NeuJRPdCx6eaY7ICuKhvhqutDKaIKA+lpQK9pbqKmrruQq671C+xlGQDYOwB2ZabkzRmSl4tbRpapYPtWq1St0yZj+k10ntpoPvc4VE4h18VV55xaosn5W0KGTKwzVkPKm5JAblM72GZ57SElkCqEZR7yDNU5m3XdhVp1rV9gL8sAwI5SH9EVD1VrtxcDrZo8DoFRx9HkSltqUam1G6p12y+pJd30ceg86GlQ56UfxzcMq64BdoQQAuwIIYQAO0IIIcCOEEIIsCOEEALsCCEE2BFCCAF2hBBCgB0hhBBgRwghBNhRjjR5kiZN0hZ6zhCEEGBHPZQmAdP0qslJhvRachY+fdbe1wyHw1I+RY/ZFsjQpnVefdKCE/YZzYDYBmm2QPtNIacfRoAd9Via7EsrHOXNIucuIAHYi4Ndm6YTBuwIsKOeSdPC2sWsOcW1BJdWlxG8ND+7CyibahWwlwO75gVPrlEJ2BFgR43IFv3Vpgn9L126NOMztjiBNq24kwW5ycnJQtP9alpdzY+uzydX8MlS0f1X+Y79prTP1gG7b8GMpsGuKWp1PL7yTSsTH9itXIqcp7wy9KnovhFgRwVly4dlLSqsObq1iISWl9N82j7IafkurbzjLtaglYaSEiwUc3aBp8UPtFyZ+3ktNKxFOLRp8YpDhw7FrV77jtay1OpIrqp8R9KC3QozuQtBaDm6U6dOBQW7tnPnzuWC3T2OZKs57T0BWa9pnU/NEa8VirTAiD0taNk+Savt6DPmq1Wl3A5yF+w6Rj3NWbno37SFV4qW4e7du6d+v1Y0Gh0dnXpS1DqsCLCjANJSbnYhnj59ulJYwl2hxt30utsS00IHWTF8Acc+LwDY68lwkPt5d+GEKt8RkLQMXNpvcpdQqwp23VDcMrHWbBrY3ePQZ5Jg9L2nG6/B19cBri2tH8VdU9UFu3ujdreVK1dOa5GXKUN3/3r6c2/uIVe4AuxoqKWWkl1cvhZ2EbCrZaj1M7WAtFZfGhkZmXpPq/KYxsbGpi5iLZgsOPz000/TWvD2eRdg2rTcnfavVp0LHLfVWuU7amW6Tyx6OtFqO/abdGzWyq8Kdn3WXUZvYmKiMbDbzUtPVjr2ZJkoHKRYv0Jw7pJ4Woc0CV4du36X9qP3XXjr6a1KGbr7t2Xd9LSnfh0E2FEg2eO6tjItJhdyW7duTYXPJ598Mi3mK8haOMckSCRh5e4juf/XX3/dC9iy39GNxY5/2bJl0z4vkNnnbY3MOmDXDc9tneqG1hTY3X0lfQVpkyCfvNm54D1w4MA0by0zaO/Zot1ly9Dd//j4OBcgYEdNt9jViqsC9uSixLYqve89SQOgBHy17latWjXt5uIDezKHXvFi3/7LfkcDsOw1PU0IwLa5iwgLmnXBLqlVaq+tWbOmMbC7T0m6WdvrL7300rR92eLJ7r5c8CZDcwqT2blSvalShu7+k+cIAXYUSG6cMwkRV7oIFUstEm9OA7uArs4691FcoHAf8X1gL7r/st9xwZq1KaYcAuyCrNtxuXnz5kbA7j4RuWBXv0MZsPvSHd2GQJUydPevcBwC7KgBuTnsgoZPipe6rT613KqAXZ10bixWrT2FZ44fP94XsKtF6nZwuq1NdzMA1QV7FgjTwK7xBGkhpabB7rvRJ1vsZcuQPHnAjnqgy5cvT4vBXrx4ccZnlLroZlZUabErP95tqbpy8+R7CXY9gSRblCalAAqqCk9Zpk4IsEu+jB0X7Pv27UsNZbmZLU2DXe+7cs+hhXXKliFgB+yoR3JbgRqkpNa0YuBqSetidcMmV65cqQR2dZq66XXWUaunATc7w1qovQC75IaGlJ0h6SlCeeDJDJBQYFf2kRvSSILd/a46KZVlkjyGXoBdm/omVB46T+4TlzKOqpQhYAfsqEdSpoQGCOXFSV34lAW7Wmxuvrtgbh2nbuep9ttLsCsNzx3EpBubNjfX2jJJQoFdEgDTylYtXfc3qHxs4I+bGto02JMDyWxT6qabx16mDAE7YEc9lnLRfYNbBGClurmqEmMXANxWn4V2lPpn4FK2SC/BLilU4A4iMpgKQkU7jMuCXTc6tyySUwoodu0+yQicuhm4Mfqmwa7Obne/lqLolknZMgTsgB31SboQlTKnkaJl52UpIgFe+/cBop/S/Ck6Zt3E3NGp/ZLgr1xw9Xv0cy4Vqw9FzlfbyhCwI4QQAuwIIYTao/8HfpRTjguP8T8AAAAASUVORK5CYII=;" vertex="1" parent="1">
          <mxGeometry x="285.995" y="-10" width="146.53" height="105" as="geometry" />
        </mxCell>
        <mxCell id="MsKxK5CXQ0qDN3r8Epf7-16" value="" style="shape=image;verticalLabelPosition=bottom;labelBackgroundColor=default;verticalAlign=top;aspect=fixed;imageAspect=0;image=data:image/png,iVBORw0KGgoAAAANSUhEUgAAAXYAAAEMCAYAAADQ553CAAAiLElEQVR42u2d3asVx5qH8xfk5tyci7nIVUBHDKIgioiOyEa2OBFyFFEcEclERMGjOAkiRhQRBRFEJ3jhB2JGSBAxhEQkRhQhHxhERCQ5Zh8ERRSPSHBHROnhV7F2ateuXv1VvXb3Ws8PGt3ro9/VXV1Pv/3WW2+9kSCEEOopvcEpQAghwI4QQv2tjz9Okrfe+nNbtQqwI4RQqyWQv/HGnxtgRwihFunbb/+At7x0Oetf/5oc+/eBUWD/dtZ/Jm/tumreS44d+8OL1/cAezk9ePAg2bhxY/Ly5UsuQIRQPVB/vR0b/O/kjb9/Mwbs+luvrxrY8ufr4wj3VoN9eHg4WbZsWfL2228nL1684CJECMXT0NDocMvr7eMZK4NgHwV1F+6AvZinvmTJEgN1wI4QqkUKvwTgPvTmXzv+PbIpLAPY8+n48ePJ1KlTk2nTpiWLFi0C7Aih2qTwSxDaGZs8+GM/3AfseTVlypRk/fr1xmvfunUrYEcI1QfJv39jwi9Foa7vzTl0DbDn1Z07d0b+D9gRQtGlEMyqVcnQoqUmfu7H1DttCsvY7yhbxqRCdjkdsvVZMYAdIRRdGvQsEX5J3bo8iNp3YLeDrWxsbGxpW1Sov94q/R7Ang32uoWN/rPB+eoxGw3y2AE7Fy02ADs2Yth4HWPXZuPlqSmNgW1MjP31rFXADtixAdix0QAbq/7vVnjyUYdNWTTKivn2H/8al+MA7Agh1EFD+/+3VPjF5L+P0w0KsCOEelLylit7zJo5WmXmaYUQjD2GvyzcaJ4aikx2AuwIoZ6RAKgQiLup6uJI5cXCrm/KjNJArZjUSUyqOVNQmtjkH4d7PEOPf+9tsHfjsQYh1GzJm00DobtVhbvCMtqHGRT1wG6Au+F/RkO9YHVH7TvPcWTdqAA7QqjVygtDF4ql4O4W9Oq00IYtHFYQ6gq7FDkOUz44JTwD2BFCrVUnGArgUT33UTGfjBWUSoRf0o7hzb/tMiGmUHgmLSwD2BFCrVUIdj60BX8f8vq7ysCqQi4aMLVb1VowobEBexwus0JPJ/ouYAfsCPWM8oYmQp+t4rX7IA7BtYj8G4+7P59ZPtxDoSXAjhBqpfwB06zYuQ/EKiV1Y4Pdv+m44ZUQs/zPA3bAjlBPKA2uAr4gbjcbcvHj8aUGUWsAe2icwD0O5bG7xxHy8P2wEmBHCLVSaR54J+BnebpN8NjtDaeTDTx2wI5QTyrNA88L9iowrjsUo2OrcoMC7Aih1io0IJoGxCYPnvrZPbpJ+a9ZG50GWgE7Qqj1CgExlNoYyhGvku4YG+x5JicVOQ7AjhDqKa+9ttICNYI9tM88W5pdwI4QarWKlhSokuZYJ9hDYZaypREAO0Kob+BeuZRAzWDPeyxZxwHYUc93eDugVqSeNeodwNu4e4zVjLoB9jTv3VZ0zHMcgB31nEK1QfxH8ax61qi96gZ0m24DsKO+fCQvvfACAuyAHbCj5kE9VoU/BNgBO2BHNSotD9h65uoUofBMlXohCLADdsCOalSoLnfIGw959YRkADtgB+yogSoyq9C/CcTIa0aAHbADdhRRRav2xSzfivLLpp7qRmpTEOtIQwXsgB31INitB55Wlzvk4ZP+WK9CobI8a3cCdsAO2PtURcu3hsCOuvc0VXcKKmAH7KhHVKSedcwl0vzwgg0t8AQQbpdupKACdsCOehQgFrJ56nKX6ZRZnigToMLhF71mw2I6h6HPVB3zAOyAvZVhB7f2CRNs8j/yx6rLnRUvJuMm3B5pYAqloDapVjpgB+y1qdOsSrzD4sAtm8NedHZrXZ2+bWDPusH5bdek1Y0AO2CvxUPPW6OZ4lbF6lkX9abTZrfaOLtgFlosoR9LF/jnIQvUMcc9ADtgb7yKeodMtsn2qss+4YSgnQbsfm8X3wO3ueppKahFPXzADthbC/a0gSU1sLa00AN1x8NPOlVDVv7+OnnhPqj6bRKUf3O15z0NVjFBCdgBe2MVGnxK82JCAEPxO1/R3PdYA4J2wFztr60NKZWhG5t+b95MpSrOCWAH7K2BUhasY2YVAPYwXNPaIy28UMTDz/uU0KZB89DvDdXpCT15VrlpAXbA3lj5HTrLg4mZVQDYi3nseb3QIrAqkn0Tczp+neGYujKVADtgbw3Y0zzwNO/Q70T9mGJXd+fzb7ad4sYhqJV9OmhzSmXRFNQYYUTADtgbK79DWIDnHXzCY4/f+fw2cRfxyJoIVahTdgi7pKVUNnnQPC/cYz15AHbA3hqwZ2UPFA3dAPY4T1KdZrSWia+HoJ12k27ToHlWWCamIwLYAXurOkLIO0xLe6QIVT2dr0i1wjLQ8mHd6TeHQjZNb/duLHIC2AF7o5W2RidT2Me38xUZFCzqiRYFdVrIrt/aBBuAvTW/tcwgGjns3et8WamIZSCbNuCaNmjetmwooAvY+x7sRb3DfqxJMt6dT+c7ZnghLTbfK2MrQBewtwrsbvzbTsTQ3zFAm6cQGDVixqfzxbZTZNC8jTF2oAvYWwH2PINpsR6PZcsHvF24APUG2PMOmtsVm9q2xB/QBeyNB3uRyRdtytEF7ONrp0jp4baVkQC6gL3RYC+T9hYjXALYex/s43VtAXbA3vdgTwu5yGuy6zmGPK821MEA7ONvp8igeZvGV4AuYG8s2IssuBCahg7YAXussEzbxleALmBvLNjTikHl9e6bvlAvYG+WHT39hVIq2zi7GOgC9saCfTxnBwL2/gN7L7U70AXsrQG761nlmR3Y9NVhADtgB+yAve/B3s3ZgYAdsAN2bAD2GsCeNoU81BCh1LWmL/sF2AE7YAfsfQf2EKzzLrhAVgxgB+yAHbA3EOwhr71bswMBO2AH7NgA7DWB3Zy8Li/SC9gBO2DHBmCvGexFZgfGanjADtgBOzYAe41gzwP42DXSATtgB+zYAOxdALtVr6znCNgBO2AH7ICdDg7YaXegC9gBO2AH7IAdsAN2wA7YATtgxwZgB+yAHbADdsAO2LmgADvtDtgBO2CngwN22h3oAnbATgcH7IAdsAN2wA7YATtgx0ZUsD958iTZuXNnMm/evGTWrFnJrVt/GDh8+DBgp4MDdtod6LYN7Pv37zcwdDeB/dGjR+b/06dPB+x0cMBOuwPdtoD94sWLY6Buwf7zzz+P/L169WrATgcH7LQ70G0D2GfOnGlAOGfOHOOh37x5cwTs0vr160fg/uLFC8BOBwfstDvQbTLYBWoLbcXYJQHdBbs0YcIE89rDhw8BOx0csNPuQLfJYP/tt99GwD48PJwK9kmTJpnX5NEDdjo4YKfdgW7DQzEW7Hv37g2CXVkxhGLo4ICddge6LQL7Bx98MALuGTNmJIODg+b/ixYtMmmP9j2lQbZFgB2w0+6Ava/BLk2ePDmYGeNuNgYP2OnggJ12B7otALvvububPPinT5+26sIC7ICddgfsgP21Xr16ldy7dy+5c+dOcvfu3ZEB1bYJsAN22h2wA/YeE2AH7LQ7YO9rsGt2ad4NsNPBATvtDnRbAPapU6dmDpxq0yQlwE4HB+y0O9AF7IAdsAN2wI6NboN97dq1yYoVK0Zty5YtS5YsWZIMDAwYSCpjRgOqgJ0ODthpd6DbArBn6ezZswaUR44cAex0cMBOuwPdXgC7BWWdsATsgB2wA3ZsdBHsbgVIqjvSwQE77Q50WwB2xc5Dm9Ibb9y4MapeDNUd6eCAnXYHui0Ae96sGNWTIRRDBwfstDvQ7SGwX758ufCP/u6775KtW7cmmzdvTo4fP16o5sy1a9fMwG1oy3pyAOyAnXYH7H0N9vfff9+kN4Y2pUIqHFOmZsyOHTsMYBcuXJisWbPG5MHPnj07uX//fq7va43VtJvMjz/+CNgRYAfsgL2bunTpkoHrnj17Rl775ZdfkmnTppk8+TzSqk2CuyDub8+ePQPsCLADdsBupZWRym55JQ9dMXl/xaWDBw8a6ArynaQKk/qcwjdlBNgBO+0O2PsG7C9fvswVT69aUmDixInJunXrUj35U6dOdfz++fPnzef0ecAO2AE7bYKNcQa7XSBbg6a+NHia9p6rAwcOmM9pvdX58+cb21q2T+uyZoVhAHu2jv1wP/n461+TOYeuJW/tumr+lQ29DkQAO+eqhaGYUMw675ZHyoQRWDV46stOdtqyZUvHfcjb1+fmzJljIK+QjAZz9drSpUvNgiBZYHc3Lqg/JYi7+/Y3gX7o8e9ABLAD3ZptiE1v/m1XOwZPr169mgn2TZs2ddzHrl27kg8//NB4/662b99uvn/y5Ek89oL69h//6gh0H+7y6IEIYAfsZMUYacZqGtifP39u3hO0y+jx48fm+6H4PWDPuAhyQr1tnjtgB+yAvYPsWqfKWNFmSwvo/2fOnEnmzp2by1incMvQ0JB5b9++faVPhNIglXUD2KuFX6xXLk9esfXQZ/QaEAHsQLeFYFe4Q4OTMbNiVF9GMXFfNttF/6bpwYMH5qYQCrdo4FTf37BhA2DPKUHbB3ba/gR6/7MCP2AH7EC3ZWCfN29e9HRHxcj1HXnormx+e6fMFg2MvvPOO2bgVKEbV6oJr/2qrABgLwf2LC/c99ybHmsH7IAdsAcgasFt0wltNoqyYGwmirasTBTf654yZYq5aajGjAC/c+fOkRRGqytXrpjPbdu2bdT3jx49aj67cuXK5PvvvzchIX1Pr+WZuQrY0/eVBWrfa296OAawA3bAnhLa0GYLdAnq+ls575IKbunvUGilk1TEy30a0KQlpS66shOWQvF4pTi6Bcr0xKD8d/LYi8n3wG2uus1lt5sNuRT18AE7YAe6DQO7nUykzU7/V1Ew/a3BVCtbk90PjeSRBl+V225vFEWkp4Tbt28br73I9wF7tseeZqNtcAHsgB2we3Jnogq+UihdUZkoek0hljYIsKeHVmwaY5oNf/C06bNRATtgB+wBzZw5cwTuN2/eHOXFq+SuGw4pUk8dsDfDRmhiksIrfogm9Jq2pueyA3bADtgDsjNFXY98cHBwTFaMbgBtEWDv7LXn3doAFsAO2AF7iq5fv24WwXDj2MqSsVCX114mvg7Ym2NDIZiiM0+BCGAHuj1YUkAZMQ8fPmzdhQXYq8Fdn2v6xCTADtgB+2vJI1c647lz58YsgtFLAuzlwzJtKf4F2AE7YHfA7sbNBwYGTBgGsPffBRUaPAUigJ1z1QNgdzdNQLp79y5g54ICIrQJ5yppWYxdBbhUqTEN8KrTorK6bYytA3YgAtgBe1+C3Wp4eDi5cOFCR8grM+bQoUNjFrwA7Fy0gJ02oY80EOyulMp48eLFjpDPW48dsGMDsNMm9JEGgN2HvIpz+eV8i5TtBezYAOy0CX2kQWBX7vru3buTadOmAXYuKCBCm9BH2gp2rSW6f//+ZPr06amhGFV4BOxcUICdNqGPNBjsT548SQ4ePDiqCJi/qZTAnj17DPjbJMAORGgTwN5XYNfqRLa+emjTghhr164dVY+9bQLsQIQ2Aex9A/ZOE5QWLFhglqDrBQF2IEKbAPa+BbtSGJUBU2Z1I8DORQvYaRP6SEPArpj6iRMncq0dCti5oIAIbUIf6bGyvYCdCwqI0Cb0EcAO2LEB2GkT+ghgB+xABLDTJtgA7IAdiAB2wA7YATsXFBChTRKz5KFWydK+j/1wv5YlEOkjgB2wA3bA3gUbnZZE1Bq3MZdEpI8AdsAO2AF7jTbkkeddxFzLIw49/p3rF7ADdi5awN5kG3mAHnvtW/oIYAfsgB2w12TDX7Dchl20X22h97Up9s71C9gBOzYAe8NsCM55vXE/VKO/uX4BO2DHBmBvmA1/X1mw9m8CVbJl6COAHbADdsBegw3fC88Kr/hhmSpZMvQRwA7YATtgr8FGmgcuwAvadrOv++mQMZ8W6COAHbADdsAewYbvgVuAp9nwX8djB+yAHRuAveFgTwO4fb1o6IY+AtgBO2AH7F22EZppaksJ+DZCaY9VJirRRwA7YAfsgL0mG6EZp3lmoVa1Sx8B7IAdsAP2mmworl505mnVHHb6CGAH7D1uw60kaKsJAvbu2uhU/CsE9RjVHukjgB2w96CNLJi0rZJg29skTyGwGDVi6COAHbD3qI20+iMh7zCGBw/Y80vn2we82ivmjZY+AtgBe4/ZyAt1F+5Vy8QCdmwAdsDOBVWTjVDRKdcj1P5D4YCqIQDAjg3ADti5oGqykXcgLhR/b3rBKdodG4AdsPedjZC33gnWbSs4RbtjA7AD9r4He9a+/PzqKuEYwI4NwA7YuaBqsJG2r7RKgn7opsqkGMCODcAO2LmgarDhx82tB94J+IAdG9gA7IC9wTb80IpNY0yzkVZ5ELBjAxuAHbA3yEaokFTIRqh+SdNLxNLu2ADsgL0vbRSpSdK2hZNpd2wAdsDetzbylISNmcMO2LEB2AE7F1TNNoqWiaVWDDawAdgBe0tsZIVlYpWHBezYAOyAnQuqizZ6qZIg7Y4NwA7YsdFjNjhf2ADsgB0bgB0b2ADsgB0bgB0b2ADsgB0bgB0bgB2wc0Fhg2PBBmAH7FxQ2OB8YQOwA3ZsAHZsYAOwA3ZsAHZsYAOwA3ZsAHZsAHbAzgWFDY4FG4AdsHNBYYPzhQ3ADtixAdixgQ3ADtixAdixgQ3ADtixAdixgQ3AzgWFDY4FG4AdsHNBYYPzhQ3ADtixAdixgQ3ADtixAdixgQ3ADtixAdixgQ3AzgWFDY4FG4AdsHNBYYPzhQ3ADtixAdixgQ3ADtixAdixgQ3ADtixAdixgQ3ATgfHBseCDcAO2LmgsMH5wgZgB+zYAOzYwAZgB+zYAOzYwAZgB+zYAOzYwAZgp4Njg2PBBmAH7FxQ2OB8YQOw16rvvvsu2bp1a7J58+bk+PHjydOnTwE7NgA7NrDRVrDv2LHDAHrhwoXJmjVrkgkTJiSzZ89O7t+/D9ixAdixAdjbBvVLly4ZOO/Zs2fktV9++SWZNm1asmLFCsCODcCODcDeNrDLQ588eXLy4sWLUa8fPHjQQFuQB+zYAOzYAOwt0sSJE5N169alevKnTp0C7NgA7NgA7G3Rb7/9ZsCsQVNfGjxNew+wYwOwYwOwN1TKhBGYNXjqS6EZvbdly5ZMsNe1/duMhclfFm4c2f76H/+FjR63wfnCRjdsfPz1r8mxH+73JtivXr2aCfZNmzYlCCHUz2oV2H/++edUsD9//ty89+GHH9KqCCHA3hZ1CrcMDQ2Z9/bt20erIoQAe5s0a9asZNmyZWNeP3/+vAG7/kUIIcDeIu3atcsAXB66K5vf/uzZM1oVIQTY26QHDx4kU6ZMSebNm5dcvnzZAH7nzp0G9ocPH6ZFEUKAvY0/+tq1awbsNi1Ik5YOHDhAayKEUNLysr0qH6Dc9pcvX9KSCCHUC2BHCCEE2BFCCLAjhBAC7H0vZe5s3Lgxeuz/1atXyZdffmkKnWmS1v79+81s3NiSnTNnzphZvNpOnz5tZvbWqaNHj5otpjTIfvbs2eD26NGjaHbu3Llj2kJtogytW7duRWuHtN9vt++//z7acVy4cCH56KOPzKpkyjB7+PBhLW197tw5c13pfMW8trL6XdlV18r07SoM6PTdvAwA7JE1PDxsJlApW8evGV9FuggXL15s9qt/165daxYXyVOquIhUQXPJkiVmv/p31apVZoWqOXPmmAuuDl28eNHYk62YWr16dWqBpR9//DGKjU8//dScH02c++CDD5KZM2ea/Z84caLyvu1M605bqIR1Gb3//vtmf4ODg+Y4lGmm6+unn36Kem0tXbrU2FmwYIG5hidNmpTMnz8/uXfvXq39rsqqa0X7dhUGdPpuEQYA9sieuoVibLBv27bN7PObb74ZeU2TsZYvX55rgZG82r17t9mfvAKrmzdvmo6uDh9bjx8/TmbMmFEL2AUNwV0Q97cYE9l0XixcbVurY+oaEDiqwkreWei3axOg3nnnnShPB5999tmYVcn026dPn26gG0vy0mXnyJEjI6/pqUCpyzqeuvpd1VXXivTtKgzI+m4RBgD2SNKj3dSpU83FsmjRoqhgVwe3kPJlL1q3s1SRIPvee++NeV3wEtxjS56izpfOW0ywC0w6L2qXurRhwwbT5vJEXWni3MqVK6M9FYSuNR3b559/HmV/qoiq/fkhEQviGCEZhRV0s5PH7ktOhOzoWq6j31VddS1v367CgKzvFmUAYI8kzYZdv369uesq/hUT7OoUqoETAoUtZaxYWyyFYp7qkPIQY+rkyZPmYtXsYXmHMcFuaweVgUWRJ4Ks+v+xdffuXQOpmOfKXq/adx7gl5FCOtrX9u3bx7yn8Q69p6fFOvpd1VXX8vbtKgzI+m5RBgD2SNIAmt9RYoZiskInGhiqQ+rU1rM5dOhQ1PMlQFmPOjbYNRPZlplQOEHeop5G9u7dGyUMo9is9q+bkzw+DTrKm1Lc84svvqitvbV/HYt7vVWVwjn2ZqHjsoO2Oj4N4sWykQZ2HYve0xNQ7H4XY9W1vH27CgOqfDfEAMBeg7oF9itXrhg7eeOEZUINgkjZTtcptKTHTfd3xwa7PDT9bg36CvK6gdhBKT196DdUkcItdm0AQVGxUZ0j2SvrfWbp9u3bZt+6icSWPEF5je7ArDzIqufJbXOdJw2a+vtUCCHGQHCo38VYda1M367CgCLfTWMAYG8p2NWg6ihz586NmrrnSqlo8j6VHqbj0eBpjI6umvmKJ7pZNrHBriqgihH78W95jNbTriL7GK9NmTEuLBRf1+vXr1+P2h62HWJ66xZ+ao+BgQFzLIp52/h6zJuIQgXap8ZVdJOSx6wwiNo+LVxStd/FXnWtSWDvxADA3kKw6zFZnrRCDHXlGqd1ShdiZaS8a+1HucyuYoM9TcrCieEdWo89NNBsPesQTMpKNyjBL/bTmW7USvvTk4af1/3JJ5+Y49D1Frtv2E3tbgFVdVnLUL+LvepaU8CexQDA3jKwK2VL+1aKU5kJFlWBWLXz2RxpeW3upoFIdXL9P1aGT5pkS5kSVWRX7Eo7HzHj07Yjx8yEsbpx48aYVEArm8kS8zjsufvqq6/MhCj1EQtYPWXF7nexV11rAtjzMACwtwjsdr+CSR0VLfU4p04cyhJ48uRJFLBrINaHemywK8SjjhwKt2jgNMaYgTxd3aBCTxnWRsz1d9Uu2qfaIaZstkpaVpXArlh7DOlJJpR3H2v1s7R+F3PVtfEGe14GAPaWgN0+FoeyCmI+lguumjDiXzR2gKtqKCZNMUMxOg6lZiq84Kfq2eOIEV4QuAU+fzUvzTqNnWqpcIkGHutocw2aaoKQP36iiTAxF7B59913gxOeNJit9q/aX9L6XcxV18YT7EUYANhbAHZ50vJo7SNlaIv1iK4BUzvApUwJDdSpY9t4cl2172PH2FV3Rr9ZA5mK67vHEStOrbxvTSgRdDXgqElRekoQLEKx97Ky4YTYIREr/WY781eDjXri0XWgY9PN0R+ALis7w1X9QymiCgPpaUCvqTZRXf0u5qpr4wX2ogwA7C0AuzJTsmqGZOXiFpHNVLD7llcq77TOmH4dg6d2Np97HDpPMdfF1eCcPFG/fkvMkIkdjNWU8rokkNvSDnazee0xJZAqhGVtyGaswdlO/S7WqmvjBfaiDADsKPURXfFQebvdmGhV53EIjDqOOlfakkclbzeWdztekidd93GoHfQ0qHYZj+Prh1XXADtCCAF2hBBCgB0hhBBgRwghBNgRQggBdoQQAuwIIYQAO0IIIcCOEEIIsCOEEALsKEMqnqSiSdpi1wxBCAF21EWpCJjKq/pFhvSaX4VPn7Xvq8Jhv5yfvMdsF8jQpnVeQ9KCE/YzqoDYBKlaoP1NMcsPI8COuiwV+9IKR1lV5NwFJAB7frBrUzlhwI4AO+qaVBbWdmbVFNcSXFpdRvBSfXYXULbUKmAvBnbVBffXqATsCLCjWmQX/dWmgv7Xr18f8xm7OIE2rbjTCXLDw8O5yv2qrK7qo+vz/go+nZR3/2W+Y39T2mergD20YEbdYFeJWh1P6PymnZMQ2O15ydNOWecwpLz7RoAd5ZRdPqzTosKq0a1FJLS8nOpphyCn5bu08o67WINWGvIlWCjm7AJPix9ouTL381poWItwaNPiFYcOHTJer/2O1rLU6kiuynxH0oLdCjO5C0FoObpz585FBbu2K1euZILdPQ7fa057T0DWa1rnUzXitUKRFhixTwtatk/Sajv6jLWrVaXcAXIX7DpGPc3Z86J/0xZeyXsOd+zYMfL7taLRwMDAyJOi1mFFgB1FkJZysx3x4sWLpcIS7go17qbXXU9MCx10iuELOPbzAoB93Q8HuZ93F04o8x0BScvApf0mdwm1smDXDcU9J9abTQO7exz6jA/G0Hu68Vr4hgbAtaWNo7hrqrpgd2/U7rZ48eJRHnmRc+juX09/7s095gpXgB31teQp2c4V8rDzgF2eodbP1ALSWn1p5syZI+9pVR6rJUuWjHRiLZgsOPzzn/8c5cHbz7sA06bl7rR/eXUucFyvtcx35GW6Tyx6OtFqO/Y36disl18W7Pqsu4zewYMHawO7vXnpyUrH7p8ThYMU61cIzl0ST+uQ+uDVset3aT9634W3nt7KnEN3/3ZZNz3taVwHAXYUSfZxXVsRj8mF3KZNm1Lh89VXX42K+QqyNpxjJUj4sHL34e//o48+CgK26Hd0Y7HHPzg4OOrzApn9vF0jswrYdcNzvVPd0OoCu7sv364gbSXI+zc7F7x79+4dZVvLDNr37KLdRc+hu/+1a9fSAQE7qttjlxdXBuz+osR2VfrQe5ImQAn48u6WLl066uYSArufQ694cWj/Rb+jCVj2NT1NCMB2cxcRFjSrgl2SV2pfW7lyZW1gd5+SdLO2ry9fvnzUvuziye6+XPD6oTmFyWxb6bopcw7d/ftthAA7iiQ3zulDxJU6oWKpeeLNaWAX0DVY5z6KCxTuI34I7Hn3X/Q7Llg7bYopxwC7IOsOXG7YsKEWsLtPRC7YNe5QBOyhdEfXEShzDt39KxyHADuqQW4Ou6ARkuKlrtcnz60M2DVI58Zi5e0pPHP69OlxAbs8UneA0/U23c0CqCrYO4EwDeyaT5AWUqob7KEbve+xFz2H5MkDdtQF3bx5c1QM9tq1a2M+o9RFN7OijMeu/HjXU3Xl5sl3E+x6AvE9SiulAAqqCk/ZTJ0YYJdCGTsu2Hfv3p0aynIzW+oGu9535bahDesUPYeAHbCjLsn1AjVJSd60YuDypNVZ3bDJ7du3S4Fdg6Zuep0dqNXTgJudYT3UboBdckNDys6Q9BShPHA/AyQW2JV95IY0fLC739UgpbJM/GPoBti1aWxC50Pt5D5xKeOozDkE7IAddUnKlNAEoaw4qQufomCXx+bmuwvmduDUHTzVfrsJdqXhuZOYdGPT5uZa20ySWGCXBMC0cytP1/0NOj924o+bGlo32P2JZHZT6qabx17kHAJ2wI66LOWihya3CMBKdXNVJsYuALhenw3tKPXPgkvZIt0Eu6RQgTuJyMJUEMo7YFwU7LrRuefCLymg2LX7JCNw6mbgxujrBrsGu9392hRF95wUPYeAHbCjcZI6olLmNFO0aF2WPBLgtf8QIMZTqp+iY9ZNzJ2dOl4S/JULrnGP8aylYq+HPO3VtHMI2BFCCAF2hBBCzdH/AwYisQd34hAmAAAAAElFTkSuQmCC;" vertex="1" parent="1">
          <mxGeometry x="292.975" y="222.5" width="139.55" height="100" as="geometry" />
        </mxCell>
        <mxCell id="MsKxK5CXQ0qDN3r8Epf7-17" value="" style="shape=image;verticalLabelPosition=bottom;labelBackgroundColor=default;verticalAlign=top;aspect=fixed;imageAspect=0;image=data:image/png,iVBORw0KGgoAAAANSUhEUgAAAXYAAAEJCAYAAACAKgxxAAAhbElEQVR42u2d74sVx5rH8xfcN/fNfbEv8iqgK4o4IA4iuiKDjHgjZEdEcUXEdRAFV3EVCSqKiIIIg27whT8Qs0KCiCEYkRhRBI0YREREr5mLoIjiFRHniii9++2kJjU91b+rz+k+5/OFxvH86Od0V9Wnn3rqqapPAoQQQh2lT7gFCCEE2GulZ8+eBRs2bAg+fPhAaSKEUNPBPjIyEixZsiT47LPPgvfv31OaCCHUZLDLUx8YGAihDtgRQqjhYD9+/Hgwbdq0oKenJ1i4cCFgRwihpoN96tSpwbp160Kvfdu2bYAdIYSaDvZHjx6N/g3YEUKoA8BuC7AjhFCXg90MtnJwcHA05QDsGcBetbDRfTa4X9iokw3AToXCBteCDcAO2LGBDe4XNgB7l4EdIYQAO2BHTdaOHUHw6ad/HCtWcE8QYAfsqNESyD/55I8DsCPAXv+bhNCofvrpN3jLS/9dwwsXx4P92LHfvHh9DyHADthRTaH++3Gs/z+DT/7rx+DYv/aNff3//z/70K1g+MD//PE6cEeAHbCjmml4eKxX/vuxY8ZyJ9hX9G0e/3nBXedBCLADdlQTKfzigPvwn/6S+P/RQ2EZhAA7YEf1ksIvTminHUAdAXbAjuqnFf97L4ypK/ySB+oKy+i7CAF2wI48accPvwbHfn5a4gQ7wkwXxc7NkRXqCsvo8z/N/Otv2TLmQAiwA3ZUzLuOHp/uvhaCPpc06Fkk/BJ36Hw5pQeTfreuS3//9Ld/UMgwC7AD9u6QoOcCugvwwy//WXuwK20y6RpyP6RQ4+rznxdsyP1AB+yo66CeG+5tAHueawHunae0B3pavQXsqGOU1BDiGopeT5Ujxh6b0ug4RuPyJr5uzVp1SV5ZngeUDgZnO0N6SGd1SpIe6IAddayH46r4rs9lHVg133VOPko4lEWT6QGS8BtNQxbA494n7t5dPc6kugvYUUd660neTBSMWaGrRpQX6qPZMev/u7DH5roWl1cvuKPO6nGqTE2MPe6B7grLAHbUeLkgl+fzmYGoSUZlZp6mhGCkaDZP0kPH5eGhZsqVxWUe6DazXA9+Vx0B7KjjurAm3mxSBM1hhyqijSPTIGrM5CPXWjGxk5hS1orRQybP74p+nnBMMxUtR7uXFmVWFO4uxwSwo47z2I0HE/WC7AHGwp5uBOpxqzuGUFb4xYZ6htUd435X3EMq2j0nQ6YzwjD2A93FrLT6C9hRxzUME3eMA3vUw88dm7bWftE5w1mldihm4eI/PGezcFjGJXujDdacJ+5aop5eqRm2qBaOiQG1eZgrxh7tcab11AA76kiPR+CLg6H3VMG0HZRyLNUb54G7rsUFhMyTrpAXIJvlKsqGwFyORpkeJ2BHHaEs+b9RL8dXXFohFw2YmqPMWjCu+GmYjeMYVHVlSaDqFTcnosxMYFedzNrjBOyAvaMVB+6qJ/YkeVY+GrmuK8u1EYZpv/NQdE5B9GHhmlQXF35z1TfAjjqqa5x3SQEf8g32IhNV8kyAQtVBvSjcs9TdPD1OwI660nP3mT3iG+x5QZJrQTPkpRdle9VJoZkqHx5JdQ2wo471sKKANw3Rd653FWDP2tBJb6xeWZercJVX3vBYnnBi0oMDsKOOVVXAbbUdwSHa4AUbvPT2eOtVLFfh+4EO2BFgb4CdVl0LGv9QbclyFRkeEibrJssDHbAjwA7YO0Ymt9xAUTA0m1T4ALvxwL0vV+G5zAE7AuyAvSOUtDlF0TTEOA+8kuUqADtgR4AdueHre8C5pctVAHbAjgA7KjYxLY/n7poz0IrlKgA7YEeAnTKODDIK3q7lGPJ60u1argKwA3YE2GsvM+Aoj9fMKSgzsBnnTcfZLhOSSYvfVzHHALADdgTYa60sA5t5s0fypiLm2Z0qy0Ok6uUqADtgR4C9lsozsGlWsiwaIkm7Jz5yzLN47r5mAwN2wI4Aey2VN3yRx3OP3hMD1Lgc87x74yb1FFzLVUTz2QF7B4A9Oimi7MQIBNibDnaXdxsd2HQNOmYNkUQ99rQtEeP2xu3EMgfsHoCeZQU23+t6tGLTYh87wwD27gS7K/4d95tdbShLvXOFVpI2qIhb3xywA/ZUj8TnrLe0BmB6Bj5X+IvzsqpYFRGwdw/Y0+LZRTfljqurWXabalcqImCvMdiLrJ1cdKQ8ax5tmYqa1UaTlokF7PW592n1Ji6sUqRn0IqNSQB7B4I9bqTfHjyJix/mBWPe/Nki4M1roykDd4C9fYrWKTPWFDewGbfYVhX118em34C9A8HumskW5y27lt4sE6f0vZtOUjpa0lTtJgwKA/b6eexx11H2+qrcjxSwdwnYo8BLg1zR2F4Wj9xVofN4O1nCLS4bTdiODbC3T67xoKTFs3w4Dmlwr/t2iIC9zWDP262Leu1ZwJ4nU6BoVoGrRxD3PZdnX/fBVMDePrnqi2sQM25gs4zT4GMXI8AO2MeA0hU/jBZQFm8kb6EWeXiUtVH3gVTAXi+vvVVjOJ1SHoC9zaGYOICbgsgbuinynbxZCEkPnLgHVNHMBcDenWB31eO6r7EC2LsY7HFdPVdBuMIdWbqZcQ+PrL2CLJUgzgNvxcw9wN4dYM8D924Z2ATsNQV73BKg0YIoM106L3SL9AryTsn2OXMPsHcP2LOEZbppYBOw1xTsLsj53rklT1aBa6AqS68gbkA0q426pzwC9vqJgU3AXmuwhzevwoX3XSB1TZd29QryxCldq9S5XnNdT90F2LuzTLAB2EtJ8M0aPyzS1SyaVZAnTpl3I+CmpDoCdsAO2AF7ZfHDsgNCebMKilSwvA8QlhQA7EAXsHc82I2qGlzMCt4yA1CtsAHYATvQBeyNA3uVhS2gxnnvvtLEXA8nO7Zf9yUEADtlgg3AToUCIpQJYAfsgJ0KBUQoE+4VYAfs2ADslAltBLADdiAC2CkTbAB2wA5EADtlgg3ATqUFIpQJYAfsgJ0KBUQoE+4VYAfsVFrATpnQRgA7YAcigJ0ywQZgB+xABLBTJtgA7FRaIEKZAHbADtipUECEMuFeAXbATqUF7JQJbQSwA3YgAtgpE2y0COyvXr0Kdu3aFcydOzeYOXNmcO/ebwYOHz4M2KlQgJ0yoY00DewHDhwIYWgfAvuLFy/Cv6dPnw7YqVCAnTKhjTQF7JcuXRoHdQP2Bw8ejP5/5cqVgJ0KBdgpE9pIE8De29sbgnD27Nmhh3737t1RsEvr1q0bhfv79+8BOxUKsFMmtJE6g12gNtBWjF0S0G2wSxMmTAhfe/78OWCnQgF2yoQ2Umewv3nzZhTsIyMjsWCfNGlS+Jo8esBOhQLslAltpOahGAP2ffv2OcGurBhCMVQowE6Z0EYaBPY1a9aMgnvGjBlBf39/+PfChQvDtEfzntIgmyLADkQoE8De1WCXJk+e7MyMsQ8TgwfsVKg8+ulv/wh2/PBrcOznp+HfgL19NlQOOmYfuhV8uvta+K9sqGy4Vx0I9qjnbh/y4F+/ft0ojwGwt9eGAC5w2Oc3h14XXAB7a23ElYdta/jlP7lXnQZ26ePHj8GTJ0+CR48eBY8fPx4dUG2aAHv7bAjaSQCxAe8DJIA9WfLGs5SHKRMfvSraSM3A3ikC7O2xoa59VogYkAD26mwI0nnKo0llgo0UsGt2adYDsFOh8kJEoNC546Bf1i5gzxd+UTmoV6Xykjfv+kwTygQbKWCfNm1a6sCpDk1SAuxUqKwQievWu0BSpvsP2LOHYOLGNqJ2dZQJk9FGADtg7wAbLm89CdZRuJcZTAXs2c4lTz0REg172GIjBeyDg4PBsmXLxhxLliwJBgYGgr6+vhCSypjRgCpgp0Jl8Q7TzhUdYE2DDmAv34NKS2mMhsrq/rDFRsnB07Nnz4agPHLkCGCnQuU6l2BicqdNXNfl4ZcZsAPs+TzwuDKJPmyrqA+0wxqB3YCySlgC9mbbiPPAk4AfBQ9g92sj6oEbjz3ORvT1MpOWaCMNALu9AiSrO1KhXIrzwLNCpO7eYSc8bJPKxDVGwuBpw8Gu2LnrUHrjnTt3xqwXw+qOVKisXX+dLytE6u4ddsLD1sTNXYOqrlRU2kiXZMVoPRlCMVSorOeLy2l3vV73e9XUMsk7YczHg5Y20jCwX7lyJfePvn79erBt27Zg06ZNwfHjx3OtOXPr1q1w4NZ1pPUcAHt7bKStR+I6yk5hB+z5elJpR5kMJdpIjcC+evXqML3RdSgVUuGYImvG7Ny5MwTsggULglWrVoV58LNmzQqePs3mDWiP1biHzM2bNwF7DW3kWZekSRBpcpkkLchWRXnQRmoC9ip0+fLlEK579+4dfe3hw4dBT09PmCefRdq1SXAXxKPH27dvAXuNbaSBxOcKj4A9m9IWZ2vaipvYiIBdOyMVPbJKHrpi8tEdl4aGhkLoCvJJ0gqT+pzCN0UE2Ntvw7UOie8lewF7fkXj7r68dNpIG8H+4cOHTPH0sksKTJw4MVi7dm2sJ3/q1KnE71+4cCH8nD4P2LEB2LGBjTaD3WyQrUHTqDR4GveerYMHD4af036r8+bNC21r2z7ty5oWhgHs2KDcsdF1oRhXzDrrkUXKhBFYNXgalZnstHnz5sRzyNvX52bPnh1CXiEZDebqtcWLF4cbgqSB3T6oUNjgWrBRNxti05/+fXczBk+vXbuWCvaNGzcmnmP37t3Bli1bQu/f1vbt28Pvnzx5Eo8dG4AdG3jsrZJmrMaB/d27d+F7gnYRvXz5Mvy+K34P2LEB2LEB2CMye50qY0WHWVpAf585cyaYM2dOJmNJ4Zbh4eHwvf379xe+EUqDVNYNYMcGYMcGYI+Rwh0anPSZFaP1ZRQTj8pku+jfOD179ix8KLjCLRo41ffXr18P2LEB2LEB2OM0d+5c7+mOipHrO/LQbZn89qTMFg2MTpkyJRw4VejGltaE13m1rABgxwZgxwZgj4GoAbdJJzTZKMqCMZkoOtIyUaJe99SpU8OHhtaYEeB37do1msJodPXq1fBzX3755ZjvHz16NPzs8uXLgxs3boQhIX1Pr2WZuQrYscG1YKNrwW5CGzrMAl2Cuv6vnHdJC27p/67QSpK0iJfdG9CkJaUu2jITllzxeKU42guUqceg/Hfy2LEB2LGBjQSwm8lEOsz0fy0Kpv9rMNXIrMkeDY1kkQZfldtuHhR5pF7C/fv3Q689z/cBOza4Fmx0LdjtmaiCr+RKV1Qmil5TiKUJAuzY4Fqw0bVgl3p7e0fhfvfu3TFevJbctcMhedZTB+zYAOzYwEabwG5mitoeeX9//7isGD0AmiLAjg2uBRtdDXbp9u3b4SYYdhxbWTIG6vLai8TXATs2ADs2sNEmsMdJGTHPnz8PmibAjg2uBRtdA3Z55EpnPHfu3LhNMDpJgB0bXAs2ugrsdty8r68vDMMAdioUNrhf2OgQsNuHJiA9fvwYsFOhsMH9wkbQsBi7FuDSSo1xgNc6LVpWt4mxdcCODcCOja4Eu9HIyEhw8eLFRMgrM+bQoUPjNrwA7FRawM79wkYNwW5LqYyXLl1KhHzW9dgBOzYAOzawUQOwRyGvxbmiy/nmWbYXsGMDsGMDGzUCu3LX9+zZE/T09AB2KhQ2uF/YaCrYtZfogQMHgunTp8eGYrTCI2CnQgF27hc2agz2V69eBUNDQ2MWAYseWkpg7969IfibJMCODa4FG10Fdu1OZNZXdx3aEGNwcHDMeuxNE2DHBteCja4Be9IEpfnz54db0HWCADs2uBZsdC3YlcKoDJgiuxsBdiotYMcGNmoCdsXUT5w4kWnvUMBOhcIG9wsbHbZsL2CnQmGD+4UNwA7YsQHYsYENwA7YsQHYsYENwA7YsQHYsQHYATsVChtcCzYAO2CnQmGD+4UNwA7YsQHYsYENwA7YsQHYsYENwA7YsQHYsYENwE6FwgbXgg3ADtipUNjgfmEDsAN2bAB2bGADsAN2bAB2bGADsAN2bAB2bGADsFOhsMG1YAOwA3YqFDa4X9gA7IAdG4AdG9gA7IAdG4AdG9gA7IAdG4AdG9gA7FQobHAt2ADsgJ0KhQ3uFzYAO2DHBmDHBjYAO2DHBmDHBjYAO2DHBmDHBjYAOw0cG1wLNgA7YKdCYYP7hQ3ADtiptIAdG9gA7IAdG4AdG9gA7IAdG4AdG9gA7IAdG1wLNgA7YKdCYYP7hQ3ADtiptIAdG9gA7IAdG4AdG9gA7IAdG4AdG9gA7IAdG1wLNgA7YKdCYYP7hQ3ADtiptIAdG9gA7IAdG4AdG9gA7IAdG4AdG9gA7IAdG1wLNgA7YKdCYYP7hQ3ADtiptIAdG9gA7IAdG4AdG9gA7IAdG4AdG9gA7IAdG5Q7NgA7YKdCYYP7hQ3ADtiptICd+4UNwA7YsQHYsYENwA7YsQHYsYENwA7YsQHYsQHYATsVChvcL2wAdsBOpQXs3C9sAHbAjg3Ajg1sAHbAjg3Ajg1sAHbAjg3Ajg3ADtipUNjgfmEDsAN2KhRg535hA7ADdmwAdmxgA7ADdmwAdmxgA7ADdmwAdmwAdsBOhcIG9wsbgB2wU6EAO/cLG4AdsGMDsGMDG4AdsGMDsGMDG4AdsGMDsGMDsAN2KhQ2uF/YAOzt0PXr14Nt27YFmzZtCo4fPx68fv0asGMDsGMDG00F+86dO0NAL1iwIFi1alUwYcKEYNasWcHTp08BOzYAOzYAe9Ogfvny5RDOe/fuHX3t4cOHQU9PT7Bs2TLAjg3Ajg3A3jSwy0OfPHly8P79+zGvDw0NhdAW5AE7NgA7NgB7gzRx4sRg7dq1sZ78qVOnADs2ADs2AHtT9ObNmxDMGjSNSoOnce8BdmwAdmwA9ppKmTACswZPo1JoRu9t3rw5FexVHf8yY0Hw5wUbRo+//Nt/YKPDbXC/sNEKGzt++DU49vPTzgT7tWvXUsG+cePGACGEulmNAvuDBw9iwf7u3bvwvS1btlCqCCHA3hQlhVuGh4fD9/bv30+pIoQAe5M0c+bMYMmSJeNev3DhQgh2/YsQQoC9Qdq9e3cIcHnotkx++9u3bylVhBBgb5KePXsWTJ06NZg7d25w5cqVEPC7du0KYX/48GFKFCEE2Jv4o2/duhWC3aQFadLSwYMHKU2EEAoavmyvlg9QbvuHDx8oSYQQ6gSwI4QQAuwIIQTYEUIIAfaulzJ3NmzY4D32//Hjx+D7778PFzrTJK0DBw6Es3F9S3bOnDkTzuLVcfr06XBmb5U6evRoePiUBtnPnj3rPF68eOHNzqNHj8KyUJkoQ+vevXveyiHu95vjxo0b3q7j4sWLwdatW8NdyZRh9vz580rK+ty5c2G90v3yWbfS2l3RXdeKtO0yDEj6blYGAHbPGhkZCSdQKVsnumZ8GakSLlq0KDyv/h0cHAw3F8myVHEeaQXNgYGB8Lz6d8WKFeEOVbNnzw4rXBW6dOlSaE+2fGrlypWxCyzdvHnTi42vv/46vD+aOLdmzZqgt7c3PP+JEydKn9vMtE46XEtYF9Hq1avD8/X394fXoUwz1a9ffvnFa91avHhxaGf+/PlhHZ40aVIwb9684MmTJ5W2uzK7ruVt22UYkPTdPAwA7J49dQNF32D/8ssvw3P++OOPo69pMtbSpUszbTCSVXv27AnPJ6/A6O7du2FDV4P3rZcvXwYzZsyoBOyChuAuiEcPHxPZdF8MXE1Zq2GqDggcZWEl78z123UIUFOmTPHSO/jmm2/G7Uqm3z59+vQQur4kL112jhw5MvqaegVKXdb1VNXuyu66lqdtl2FA2nfzMACwe5K6dtOmTQsry8KFC72CXQ3cQCoqU2ntxlJGguwXX3wx7nXBS3D3LXmKul+6bz7BLjDpvqhcqtL69evDMpcnaksT55YvX+6tV+Cqa7q2b7/91sv5tCKqzhcNiRgQ+wjJKKygh5089qjkRMiO6nIV7a7srmtZ23YZBqR9Ny8DALsnaTbsunXrwqeu4l8+wa5GoTVwXKAwSxkr1uZLrpinGqQ8RJ86efJkWFk1e1jeoU+wm7WDisAiT48gbf1/33r8+HEIKZ/3ytRXnTsL8ItIIR2da/v27ePe03iH3lNvsYp2V3bXtaxtuwwD0r6blwGA3ZM0gBZtKD5DMWmhEw0MVSE1auPZHDp0yOv9EqCMR+0b7JqJbJaZUDhB3qJ6I/v27fMShlFsVufXw0kenwYd5U0p7vndd99VVt46v67Frm9lpXCOeVjousygra5Pg3i+bMSBXdei99QD8t3ufOy6lrVtl2FAme+6GADYK1CrwH716tXQTtY4YZFQgyBStNElhZbU3bR/t2+wy0PT79agryCvB4gZlFLvQ7+hjBRuMXsDCIqKjeoeyV5R7zNN9+/fD8+th4hvyROU12gPzMqDLHuf7DLXfdKgafScCiH4GAh2tTsfu64VadtlGJDnu3EMAOwNBbsKVA1lzpw5XlP3bCkVTd6n0sN0PRo89dHQtWa+4ol2lo1vsGsVUMWIo/FveYzG0y4j043XocwYGxaKr+v127dvey0PUw4+vXUDP5VHX19feC2KeZv4us+HiEIFOqfGVfSQksesMIjKPi5cUrbd+d51rU5gT2IAYG8g2NVNlietEENVucZxjdKGWBEp71rnUS6zLd9gj5OycHx4h8Zjdw00G8/aBZOi0gNK8PPdO9ODWml/6mlE87q/+uqr8DpU33y3DXOo3A2gym5r6Wp3vnddqwvY0xgA2BsGdqVs6dxKcSoywaIsEMs2PpMjLa/NPjQQqUauv31l+MRJtpQpUUZmx664++EzPm0ass9MGKM7d+6MSwU0MpksPq/D3Lvz58+HE6LURgxg1cvy3e5877pWB7BnYQBgbxDYzXkFkypWtFR3To3YlSXw6tUrL2DXQGwU6r7BrhCPGrIr3KKBUx9jBvJ09YBy9TKMDZ/776pcdE6Vg0+ZbJW4rCqBXbF2H1JPxpV372v3s7h253PXtXaDPSsDAHtDwG66xa6sAp/dcsFVE0ailcYMcJUNxcTJZyhG16HUTIUXoql65jp8hBcEboEvupuXZp36TrVUuEQDj1WUuQZNNUEoOn6iiTA+N7D5/PPPnROeNJit8i/bXuLanc9d19oJ9jwMAOwNALs8aXm0pkvpOnx10TVgaga4lCmhgTo1bBNPrmrte98xdq07o9+sgUzF9e3r8BWnVt63JpQIuhpw1KQo9RIEC1fsvahMOMF3SMRIv9nM/NVgo3o8qge6Nj0cowPQRWVmuKp9KEVUYSD1BvSa1iaqqt353HWtXWDPywDA3gCwKzMlbc2QtFzcPDKZCubc8krlnVYZ069i8NTM5rOvQ/fJ5764GpyTJxpdv8VnyMQMxmpKeVUSyM3SDuYwee0+JZAqhGVsyKavwdmkdudr17V2gT0vAwA7iu2iKx4qb7cVE62qvA6BUddR5U5b8qjk7frybtsledJVX4fKQb1BlUs7rq8bdl0D7AghBNgRQggBdoQQQoAdIYQQYEcIIQTYEUIIsCOEEALsCCGEADtCCCHAjhBCCLCjFGnxJC2apMP3miEIIcCOWigtAqblVaOLDOm16Cp8+qx5Xyscdsv9yXrNZoMMHdrn1SVtOGE+oxUQ6yCtFmh+k8/lhxFgRy2WFvvSDkdpq8jZG0gA9uxg16HlhAE7AuyoZdKysKYxa01xbcGl3WUEL63PbgPKLLUK2POBXeuCR/eoBOwIsKNKZDb91aEF/W/fvj3uM2ZzAh3acScJciMjI5mW+9WyulofXZ+P7uCTpKznL/Id85viPlsG7K4NM6oGu5ao1fW47m/cPXGB3dyXLOWUdg9dynpuBNhRRpntw5I2FdYa3dpEQtvLaT1tF+S0fZd23rE3a9BOQ1EJFoo528DT5gfarsz+vDYa1iYcOrR5xaFDh0Kv13xHe1lqdyRbRb4jacNuhZnsjSC0Hd25c+e8gl3H1atXU8FuX0fUa457T0DWa9rnU2vEa4cibTBiegvatk/Sbjv6jLGrXaXsAXIb7LpG9ebMfdG/cRuvZL2HO3fuHP392tGor69vtKeofVgRYEcepK3cTEO8dOlSobCEvUONfeh12xPTRgdJMXwBx3xeADCvR8NB9uftjROKfEdA0jZwcb/J3kKtKNj1QLHvifFm48BuX4c+EwWj6z09eA18XQPgOuLGUew9VW2w2w9q+1i0aNEYjzzPPbTPr96f/XD3ucMVYEddLXlKpnG5POwsYJdnqP0ztYG0dl/q7e0dfU+78hgNDAyMNmJtmCw4/P3vfx/jwZvP2wDToe3udH55dTZwbK+1yHfkZdo9FvVOtNuO+U26NuPlFwW7Pmtvozc0NFQZ2M3DSz0rXXv0nigcpFi/QnD2lnjahzQKXl27fpfOo/dteKv3VuQe2uc327qpt6dxHQTYkSeZ7rqOPB6TDbmNGzfGwuf8+fNjYr6CrAnnGAkSUVjZ54ief+vWrU7A5v2OHizm+vv7+8d8XiAznzd7ZJYBux54tneqB1pVYLfPFbUrSBsJ8tGHnQ3effv2jbGtbQbNe2bT7rz30D7/4OAgDRCwo6o9dnlxRcAe3ZTY7Ervek/SBCgBX97d4sWLxzxcXGCP5tArXuw6f97vaAKWeU29CQHYHPYmwoJmWbBL8krNa8uXL68M7HYvSQ9r8/rSpUvHnMtsnmyfywZvNDSnMJkpK9WbIvfQPn+0jBBgR55kxzmjELGlRqhYapZ4cxzYBXQN1tldcYHC7uK7wJ71/Hm/Y4M16VBM2QfYBVl74HL9+vWVgN3uEdlg17hDHrC70h1tR6DIPbTPr3AcAuyoAtk57IKGS4qX2l6fPLciYNcgnR2Llben8Mzp06fbAnZ5pPYAp+1t2ocBUFmwJ4EwDuyaTxAXUqoa7K4HfdRjz3sPyZMH7KgFunv37pgY7K1bt8Z9RqmLdmZFEY9d+fG2p2rLzpNvJdjVA4l6lEZKARRUFZ4ymTo+wC65MnZssO/Zsyc2lGVntlQNdr1vyy5DE9bJew8BO2BHLZLtBWqSkrxpxcDlSaux2mGT+/fvFwK7Bk3t9DozUKvegJ2dYTzUVoBdskNDys6Q1ItQHng0A8QX2JV9ZIc0omC3v6tBSmWZRK+hFWDXobEJ3Q+Vk93jUsZRkXsI2AE7apGUKaEJQmlxUhs+ecEuj83OdxfMzcCpPXiq87YS7ErDsycx6cGmw861NpkkvsAuCYBx91aerv0bdH/MxB87NbRqsEcnkplDqZt2HnueewjYATtqsZSL7prcIgAr1c1WkRi7AGB7fSa0o9Q/Ay5li7QS7JJCBfYkIgNTQSjrgHFesOtBZ9+L6JICil3bPRmBUw8DO0ZfNdg12G2f16Qo2vck7z0E7IAdtUlqiEqZ00zRvOuyZJEAr/O7ANFOaf0UXbMeYvbs1HZJ8FcuuMY92rmWiqkPWcqrbvcQsCOEEALsCCGE6qP/A5FXeWlaHMaaAAAAAElFTkSuQmCC;" vertex="1" parent="1">
          <mxGeometry x="566.8199999999999" y="-5" width="141.13" height="100" as="geometry" />
        </mxCell>
        <mxCell id="MsKxK5CXQ0qDN3r8Epf7-41" style="edgeStyle=orthogonalEdgeStyle;rounded=0;orthogonalLoop=1;jettySize=auto;html=1;exitX=0.5;exitY=1;exitDx=0;exitDy=0;" edge="1" parent="1" source="MsKxK5CXQ0qDN3r8Epf7-18">
          <mxGeometry relative="1" as="geometry">
            <mxPoint x="637.3999999999999" y="165" as="targetPoint" />
          </mxGeometry>
        </mxCell>
        <mxCell id="MsKxK5CXQ0qDN3r8Epf7-18" value="Compute&lt;br&gt;Channel-Selection Scores" style="rounded=1;whiteSpace=wrap;html=1;fillColor=#f8cecc;strokeColor=#b85450;fontStyle=1" vertex="1" parent="1">
          <mxGeometry x="554.6" y="101.25" width="165.57" height="30" as="geometry" />
        </mxCell>
        <mxCell id="MsKxK5CXQ0qDN3r8Epf7-39" style="edgeStyle=orthogonalEdgeStyle;rounded=0;orthogonalLoop=1;jettySize=auto;html=1;exitX=1;exitY=0.5;exitDx=0;exitDy=0;entryX=0;entryY=0.5;entryDx=0;entryDy=0;" edge="1" parent="1" source="MsKxK5CXQ0qDN3r8Epf7-24" target="MsKxK5CXQ0qDN3r8Epf7-27">
          <mxGeometry relative="1" as="geometry" />
        </mxCell>
        <mxCell id="MsKxK5CXQ0qDN3r8Epf7-24" value="$$w_2$$" style="ellipse;whiteSpace=wrap;html=1;aspect=fixed;align=center;fontStyle=1" vertex="1" parent="1">
          <mxGeometry x="460" y="103.75" width="27.5" height="27.5" as="geometry" />
        </mxCell>
        <mxCell id="MsKxK5CXQ0qDN3r8Epf7-32" style="edgeStyle=orthogonalEdgeStyle;rounded=0;orthogonalLoop=1;jettySize=auto;html=1;entryX=0.5;entryY=1;entryDx=0;entryDy=0;" edge="1" parent="1" source="MsKxK5CXQ0qDN3r8Epf7-25" target="MsKxK5CXQ0qDN3r8Epf7-27">
          <mxGeometry relative="1" as="geometry" />
        </mxCell>
        <mxCell id="MsKxK5CXQ0qDN3r8Epf7-25" value="$$w_1$$" style="ellipse;whiteSpace=wrap;html=1;aspect=fixed;align=center;fontStyle=1" vertex="1" parent="1">
          <mxGeometry x="460" y="180" width="27.5" height="27.5" as="geometry" />
        </mxCell>
        <mxCell id="MsKxK5CXQ0qDN3r8Epf7-27" value="$$+$$" style="ellipse;whiteSpace=wrap;html=1;aspect=fixed;align=center;fontStyle=1" vertex="1" parent="1">
          <mxGeometry x="510" y="103.75" width="27.5" height="27.5" as="geometry" />
        </mxCell>
        <mxCell id="MsKxK5CXQ0qDN3r8Epf7-40" style="edgeStyle=orthogonalEdgeStyle;rounded=0;orthogonalLoop=1;jettySize=auto;html=1;exitX=1;exitY=0.5;exitDx=0;exitDy=0;entryX=0.005;entryY=0.57;entryDx=0;entryDy=0;entryPerimeter=0;" edge="1" parent="1" source="MsKxK5CXQ0qDN3r8Epf7-27" target="MsKxK5CXQ0qDN3r8Epf7-18">
          <mxGeometry relative="1" as="geometry" />
        </mxCell>
        <mxCell id="MsKxK5CXQ0qDN3r8Epf7-42" value="" style="rounded=1;whiteSpace=wrap;html=1;arcSize=9;dashed=1;fillColor=none;" vertex="1" parent="1">
          <mxGeometry x="277.75" y="-20" width="162.25" height="170" as="geometry" />
        </mxCell>
        <mxCell id="MsKxK5CXQ0qDN3r8Epf7-43" value="" style="rounded=1;whiteSpace=wrap;html=1;arcSize=9;dashed=1;fillColor=none;" vertex="1" parent="1">
          <mxGeometry x="281.62" y="165" width="162.25" height="170" as="geometry" />
        </mxCell>
        <mxCell id="MsKxK5CXQ0qDN3r8Epf7-46" value="The Selected Signal" style="text;html=1;align=center;verticalAlign=middle;resizable=0;points=[];autosize=1;strokeColor=none;fillColor=none;fontStyle=1" vertex="1" parent="1">
          <mxGeometry x="567.385" y="305" width="140" height="30" as="geometry" />
        </mxCell>
        <mxCell id="MsKxK5CXQ0qDN3r8Epf7-50" value="" style="shape=image;verticalLabelPosition=bottom;labelBackgroundColor=default;verticalAlign=top;aspect=fixed;imageAspect=0;image=data:image/png,iVBORw0KGgoAAAANSUhEUgAAAjYAAAGwCAYAAAC6ty9tAABapklEQVR42u2dX6gV15fn+2Ue+qVf+qUf5qH75QeKKKIgioi3RSQokkBakYgtQSRBItxRgiIhEyIiBiQi2qEJTiSYkbkikhCcIDqiCHEkIiGIXMdRhIgojojoT0SpYe2mLnX33btq/6u/5/OFQu+pc+rU2bVrr0+tvdbaf5MhhBBCCA1Ef0MTIIQQQgiwqVGvX7/O3r592/oxEEIIIQTYBOvo0aPZokWLsr/85S/ZrFmzsg0bNmQ3b950/vzLly+zAwcOZPPmzZs6xnvvvZddvnyZK40QQggBNs1p9+7dCkbWrVuXnThxYgpQ5s6dm01OTjodY9OmTeoY69evz06ePJkdOnRoCpQuXLjA1UYIIYQAm/p1/fp1BR8CJvrr4nURUKnSxYsX1TE+/PDDaa/fvn1bHWPZsmVcbYQQQgiwqV+5t+batWsz9m3btk3tE0Ap0/79+9X7zp49O2Nf7smRqSqEEEIIATa1amxsLJs9e7Yx2FemlARKJiYmSo9x/Phx9b5jx47N2Ld69WrltZGAYoQQQggBNrVJYEagY/ny5cb958+fV8CyZ8+e0uM8evQoW7hwYbZ48eLs1q1bU68fPnxYfX7Hjh1cbYQQQgiwqVcyPSTgsWXLFuN+yWiS/Tt37qw8lkxXSTyOvF8gR4KPxRMkgcg+3hr5PBsbGxsbG1v3t86BzYsXL9SJbd261bj/ypUrav/4+Hjpcd68eZN98cUXyvuzYsWKbPv27dlHH32kwEYCh3/99VcvsOm6+nCOfRDtSDvSjrQjGpYt7IzHxgY2ucemaipp37596n0SiFyM1bl37162dOnSbM6cOdndu3cBG0Q70o60I+2IAJv6JBAiJ7Zq1Srjfqk/UxVjI8cQz8yCBQuMU06nTp1Sx/jyyy8BG0Q70o60I+2IAJt6tWTJEuVRMenMmTPqxKVon03Pnj0r9fo8fvxY7ZfUccAG0Y60I+1IOyLAplZJ/IytVo0EDcs+KdZnk3hp5D0rV6407r9x44ZTnA5gw42LaEfakXZEgE208ummXbt2TXv9wYMHKrPJBCwSdCxbLllXSo7xyy+/zHjvJ598ovadPn2amwKhDmjzf7+Z/ePeK2r7r//z/9IgCKFhgY1o48aNU2ndAjoSFyNBv/KaLJdQVO6hKf4gWU9q/vz5akrr4MGD6hgCObLEgmm5BsAGofYkQPM3/+W82gRyEEJocGAjcTKS+VTMTZfYG9MSCSawEUlhvryOTb5JULFkTL169QqwQagjyqFGNjw2CKFBgk2u58+fq9o1xerBvnr69Kk6hsTlmJZpAGwQ6g7YLD/yGw2CEBou2HS1oRBC9YCNTEshhBBgA9gg1Ev9r//z/wAbhBBgA9ggBNgghBBgA9gg1Cn9t//9YBrYyIYQQoANYIMQYIMQwl4DNoANQl0Dm7tP/krDIIQAG8AGIcAGIYS9BmwAG4RakxTkA2wQQoANYIMQYIMQQoANYINQlyRrQ+lgIyngCCEE2AA2CAE2CCHsNWAD2CAE2CCEABvABiEE2CCEABvABiH0H5LVvHWwkRRwhBACbAAbhAAbhFCvlPJ+B2wAG4QAG4RQq/e+LHyb6p4HbAAbhAAbhFArKt7zUs8KsAFsEBqE5GkNsEFotMFGkggAG8AGocGCTaqnN4RQNyWZj8V7Xjy3gA1ggxBggxDqpfTFbwEbwAYhwAYhNBiwkXEAsAFsEBqEdKgBbBAavvTFbwEbwAYhwAYhBNgANoANQoANQqhtmZZSAWwAG4QGCzapUj8RQoANYAPYIATYIIQaB5u7T/4K2AA2CAE2CKH+yVRxHLABbGZICh5JbIJsVG5FgA1CCLABbHoNNsUocwxDfUpx8yHApinxkIO6KFP9Knk4B2wAG2tHSZU6h2bCozxpiOHF+NYHNqmqkKLp40IKw4EQYAPYtGYgUL03I8Y3Xvp6MbRtve1LGj0CbFCvwYYpE8AGsBlt6WXrARvUVXsF2AA2lR1FDDBu5/pvRgTY9AlsmD5FgA3qDdiYDARgA9gANqMt8dDgZUR9AZsUge69AZvXr19nb9++BWwAm87djEz3pfMoYIDTSy+CRrsiwKZlHT16NFu0aJE60VmzZmUbNmzIbt50c6UuXbq0ctu9e/dgwEZ3OQM2zcAjYAPY9AlsyJZEgE2LEuiQE1y3bl124sSJ7MCBA9m8efOyuXPnZpOTk5Wfnz9/vnWbPXu2OvbQwYb6FcBjn9q0WLALA5xGehE02hUBNi3p+vXr6uQ2bdo043Xx3Kxfvz742Pfu3csWLlyYjY2NZU+fPh0M2OhLwAM2gA1ggwAb1CewSZG111mwyb01165dm7Fv27Ztat/t27e9jytxOmvXrlVwdOPGjaiG6gPYkNoJ2AA2oy29VgjtirogW9LAoMFGvCkyXWQKGD558qQ68YmJCe/jHj58WH12//790Q3VNZlWSgVs6odHvGKATZ/Ahky+dJL4OmLsABtnr4p4VJYvX27cf/78eXXie/bs8TrugwcPsjlz5mRLlizJXrx4AdggwKZjbVrsw4ANYNMHKBcDDdwANpV6+fKlOrEtW7YY91++fFnt37lzp9dxv/jiC/W57777Lqih9K0PYEMxrvrbGLABbLosk/HAEKcFRjL4wqAwFdi42OfWwUa8KXJiW7duNe6/cuWK2j8+Pu58zCdPnqipLfHWSE2cFATYNZmWgAds6gcbvGKADWAz2u1KX20XbHrlsbGBTe6x2bFjh/MxpR6OfObQoUPJGgqwAWwAm/rAhikTwAawGT2wSWGzOhtjIye2atUq4/4LFy54x9isXr1afeb+/fuDBRvTXDpgUz88AjbpYFGPYUL1gA2ZfOnbFQE2lZIpIwn0NenMmTPqxKVon4sEZuT97777btKG6gPYMPdbP9gAj+nARh/sEGDTRZkCX5GfTIkYgwcbiZ+x1aqRoGHZJ8X6XJSD0MGDBwEblLyNARvApk8GGLCpx9vA9F442BTH1UGDTT7dtGvXrmmvS8q2LKuwcuXKGZ+RoGNTGrccQ44laeJDBhtWSAZsABsE2LQDNrQpYOOkjRs3TqV1C+icOnVKLVwpr128eHHaeyXTyZbmJWnj8rpAEWCDABvABrDBCKcyyrRpfBsWp/hT2KxOg82zZ89U5lMxN11ib86ePTvjvWVgI+tCyeumKsZDBxui9YFHwAbPArWXAJsu3/fF/w8ebHI9f/5c1a65detWa+cA2CDAph4Vn9Z0DwMCbLpulAEbwKa3AmwQYNMM2BSn+wjIBGz6Aja0KWAD2AA2gA0CbAAbwIY2BGwAG7OKLvyiYQBsABvAZnRlqxVCUcl0fRawiW9DPZAYsAFsSsGGOIX6wQZ4BGwAm9GSKTuSNk0DNinGU8BmgGCjP00gwKYvRkJABrABbACb0QKb4pQpYAPYTKnYMVhIsH54ZLoPsOmD9NXSMcKATRfbELABbAAbwAawQYBNi6prjaNRve/1sRWwAWwAmxbaGLABbPoGNkXXP0YYsAFsUOfBpjiXLjcYxqFesCGOqT6w0YOJEWAD2AA2gM2Ig438H7CpF2zwitVjJACbtNJhBiMM2HSxDQEbwAawAWwGO8DpxhiwAWz6AjbUs4q77wEbwGaG9IUEAZt64RGwAWz6oOI4ANikkW3FdMAmDdikGE8BG8AGBYCNXh8EATZdBxs9RgwBNoANYNMrsME4ADaADQJs0su2/hZtCtgANoBN78EGrxhgA9iMNtgU25c2Dbvv85gawAawmSHdGGAc6odHwKaeAY6+C9j0BWyKfZV6VoANYAPYADYIsGmobfWUWsAGsAFsUOfBRi92hHEAbPo6wOntjNKDDUY4XLbsSNrUXSbI1utZATaADdVbARvABpWCjamtEWDTFbBJOZ4CNoANcpTeprqXDAE2gM1oPeAUIYc2BWwAm5rBBuNQP9gAj/UMcPTd+qARI1wf2FD2AbABbGp+MsM4ADaADQJs6gUbvaYNcpO+PA1gA9gANi2J6T7ABrBBxfsesAFsABvABrBBgE2LbQvYpAUbfXkFBNgANoANYIPxBWxaABuMcJpxALABbACbBsCGzBLApu8DHH0XsOnTOECb+ktPmRelHE8Bm4GCjb6uEUrXxqY1jTDA6cCGvgvY9AlsqGcVBzb5PQ7YADbWAQywaQ5s8CwANn1rW8Am7TgA2AA2gE2DT2YYB8AGsKFtAZv6xwHABrABbAAbwAYBNoANYDPCMo2dgA1gYx3AAJv6BzQCtAEbwIZxALABbAAbjANgg2bI1E/pu+nbto6UWsaBKzPalOxIwAawAWx6o2JaJ2AD2PS1bQGbOJkSNSj7ANgE6/Xr19nbt2+jjiGff/PmzUiAjek1lGZAY7oPsAFsGAfycQCw8ZepzVKWz+g82Bw9ejRbtGiROtFZs2ZlGzZsyG7e9DPUv/zyS7Z27Vp1DNkWL16cHTlyZDBgY3I5AzaADWBD2wI2gE1fwCalB7zTYLN79251guvWrctOnDiRHThwIJs3b142d+7cbHJy0ukYx48fV8cYGxtTkCR/r169Wr22Z8+ewYFNPoABNoANYDPaMhkKwCZOpnEVsAFsnHX9+nV1cps2bZrxunhu1q9fX3mMu3fvqveuWrUqe/bs2dTrr169moIbeQ9gg0IGNAxwPcaXvgvYADbDlingeiTAJvfWXLt2bca+bdu2qX23b98uPca+ffvU+65evTpj308//ZR9/PHH2W+//dZ7sCl2CMAGsAFskK1tMcKATdfAJgfskQAbmTqaPXu2MWD45MmT6sQnJiZKjyGeGonPSaG+gA3GAbABbBBgU4+qKuaSHQnYWCUwI1NIy5cvN+4/f/58ZYyMHEPeI96d3EOzY8cO9ffevXuze/fujQzY5DEhCLABbEZHJoML2KQHG8o+ADZOevnypTqxLVu2GPdfvnxZ7d+5c6f1GI8fP1bvEZjZunWr+v/8+fNV8LH8XwKQL126NFiwMQW7ojQDmglsMMCATZfBxpRSC9ik6a+Ajb/0hURHAmxevHihTkyAxKQrV66o/ePj49Zj/Prrr+o9Mp21dOlSFXSc6+zZs+p1AZ1Hjx45N5S+dXkAA2zqf1LDAAM2gA39FbCJAxtT2/p6wF3sc2c8NjawyT024o2xSYKO8x8oIKTr0KFDap+kgPfdYwPYADZDMr60K2AD2Iwe2KSc2u9sjI2cmAT/mnThwoXKGJvnz5+r98yZMyfY6wPYIMAGsOmrTHEMgE36/grYADbOWrJkiRVKzpw5o05civaVwZEEIEtMjUmSAi7H2L59e+/BxjSAATb1P6lhgAEbwIb+CtgANs4ST4qtVo0EDcu+YtyMSR988IF6359//jljnyyzIPv2798P2CDApkOGgr5b37iAEU7fpmRHhoNNvpDoyIBNPt20a9euaa8/ePBAeWFWrlw54zMSdCxbrlOnThmzp8SbI5WLZZ/rulOADWAD2NTbdwEbwAawAWwGDTaijRs3ToGJgI6AimQ4yWsXL16c9l5Z/dsUDb1582b1mlQZPnfunPLUyEKaQ1orylYm3dR5EGADlI+W8QBs6m1TwMZPxft7JMFG1neSzKdiCpfE3ki6ti4b2Mi6ULK0gqR35/sldufgwYPRDdXFm62KivvU+WXg6Mrgy5QJYNNnI1wG6CiuTQGbcLAp3t8jAza5JMNJsphu3boVfIw3b96oFHBZG0r+n6KhAJt6PSTS6eXcu3D+gA1gA9ggwAawGZRGGWyKA2BTKwIXf1MXMjgAG8AGsEF1T6GMgmzL/QA2gE2jYCOdLzfsTQyGxY7flQEDA0y7AjYIsEk7vhdjE1PGLAI2AwIbHWBSgE3RyDRlaKSDFw1eFwxcEwa4uM7XKBtfwAYj3EXZ+iVJBIANYNMzsCkOhE0ZmuJTZVfihOoGGzlWHlMkbT4qT9OADWAD2AA2gA1gY73Z6gAbE2TUrWI8y6iAjbRz/h3y76gYdMAGsMEgj5aKfRCwAWy8niJsRiMF2NQdQKxPQzUFVG0a4K5NvQE2w/EuDA1scm9mU4kMgE19YFPsg4ANYNMY2Jggo+4YEN1T04XMqLoDtE0gNwqxNkMsVdDlcaHvYCO/JS8F0fT5N+FpAGwAG8Ams6fOpQKbUIMr75HOKR3X96lb91yMKtiMQpxNndOogM2wwEZPKmi6bzRhkEdBxVkAwAawqQQbvTPUBTYuBlcPOnZ1G+su9CLYtGno6wQbU3r7qMRAADaATcx90uTDThMGedTApjimAzaATatg4zIg6gHArgOQ7oGyDSZDMsA6zI1SfEkbYNN0bEaXxoW2wUb6unyvbL7Gqxhg31S8n69BJiYsvB1TxtYBNoBNLZ4EfQBy9bbov6crT5hNpdQXgbBJb0Vbxr4psJFBM/cAjsIUnwvYtOFdiPl+UyJDk2NCEwYZsAFsAJuWwMZlQAodgPSBr+2BuAkDrHulms4Ey+vmyHk06dqvu1SBrY3lmEP32nQ1g0d/4PHpb6ZEhiZBwhbvB9h0rx0Bm56DTZlHI9ZAFo/tO0USAkOm39OFQcMl8ywV2OgBknWDhqmydFNGv+52LTOKQ49f6gPYyP9jwaZJryZgA9gANh0AG1NRuVCDW+yMIWDj2lF1Iz8KYKPf6E1mgukeoiaDtJsEmzaf9AEb+3XwAUyT97hJsLGNp4BNeDsCNoBNq2Cju/J9vACpwKatDJm6DbB+nZqMKzLFLTRl8ACb5scFwAaw6RLY1NWOgE3PwaZstd5YsCl6DvRpKV+wcR2ATN6KtsGmyVpBOtjUbXzajFtoCmxMsWJDTyPvItiYxgXXc8iDv/O+0kbhTtu9DtgANoBNj8Cm+PnigFhlFGIMiemcuwQ2dafUNzlQmgxNk+3s0q4pzsU03db2Eh2AjV//1h8u2ijcCdgANoDNwMBGPu9qFOoCm7aMUZtgUydkFAOV9SmpIbSr6R5pqwZKm+NCV8DGNC6EgI2cd9m41ybYUFCyG4AI2AA2zh3Q1djEPCGbDE/bxqhOA2wbFJsYKHXj1/RTcNtgM+S1uLpYcyXmgacL9a3KzhmwAWwAm4QqM0apwcb1eDawcTkHU6eP/R19AZvizdwEzOnGb6hgY1st3vYb89fzcgOATRqZxgVXENBBpun6VlVeGcAmHmxStiNgA9g4P6G4BuzFuP5Nnb7thTDrrBVkM+5N/Ga9fzTt3m8DbPS4sbL397lKcV/AxvX6tl0Gour7AJtueb4Am4iGyjNY5EZra76+zADGGEfTjex6vBjXv6ljAzbNgE3T7v2yp+6UYKNn4VT9xiGkhXcRbGIeeNoGm6rYJMAGsBkE2OSLuOU3VluVTMu8MjHG0XQj1w02tsFqyGBjO3YT3hP93Jt279fZrrZjVcGbnv0XO8C2NZXVxSq5MWBT/D35/dAkTDQNNnKd8iVOhhQL1tSUHmAT2FD66tVtGd0mwCY3AKbBpWoQ8qloaxt0fY18cQXhFNekzgBtmwehCe+JPog0bfSaBhv5nS7wFpsWrq9g3ca4UDfY5Mf06fMxntyy+lZNZPE1CTbSb/JxJV+4dSgZfE1N6QE2gQ1lq//R9CBWF9iYjI4rYOgrVLtCiW3wcJk+sJ17igUPmwKb4rHr9p6Yig4OHWzymJmy32iKA/G9rroBb2M6q06wyYFNNh9vou2Bxxds2siWrHrQSGWQi4UIi9epzQWAAZsRAZviej5yAfSlB5qEm7rAxmRwXQFDXzDTFUpsYOPrvdAHhtipnDbApm7IsLV1k+79sv6UCmz031nVriavgu91NWVhNf3EXdd6PHqRPZ+HuRiwMd1nTVYfbgpsimUX9PYagtemKc8XYBPQUKaLU7zJmqTrMgOQGmxcAUNvizbBJp9+6CrYtBULYfMItQU2ert2CWx87x1TEbqueHJji8mZvFGu95ftgcflwaPtbMkqb3Wq/lr0cje9IC5gM+JgYzO0bUxJ1QU2RY9Usa5HnWBjO77PtExM2XZf+EgBNmWfrxMybNelybgFV7CJeVI19amydjV5FXw8fqYidG1MR9XVr2LWFgsdF1zAJsQrm38mJCurDrAxTZPm/TfFAxpgg0obytbJu7R+Sez5mAZG13LsulFwhZIU69vELMA5qmBT7MNNur7r9ISVAVxZu5oMt49B0eO72koDbhJsQpZLSQE2vsfQ7+nilI/PGFAX2Jjuh6GtQ9XUlB5gE9BQtk7eZpnv1GBjMnB1g43N0FUFfFY9MXcZbMpAok7via0PF7Mx2nTv1wE2epqwqV1Tgo0eiNx3sNHv5Zjim77B8aZzDh1v9XXvXNqhaixNcZ1t12xINXJcwSb2fvmHf/7XGdcJsKkAmyZWJ/U1jFVudV9XramDuf4+PT7BtU1SBNLWsZJzmZFIvWyF77Hz9vC9vrZjN+l1LOufqcDGt/6JCWx8Yub070vZnnI82aSPV7VJHWXrY5fgCH3gscUFhS7oqT/8uMRAVfXHlIU69WMMaUX6Jqb0rNPsYEw52Lg8ZTdF12XfF1rkzTaQ+IJN/tTvCiU2QxcKR6mmVVzBJsRwuYKN6dgxae1dA5vUnrCyNnTxZoSCTdkyFbFe3KI3rWp8qQNsYn9b6AOP7b3563mtlxDD5zo+Ngk2en9rMvtraGAzbZodjHEHm7IL00R6Xh1gY5v6aRJsZrgRHQfjOlZyriul3sfjZjq27A8d9Gx9uMn1opoGG1OasAvY+BjNYmyNDp8xXlzTFGtZu9QBNrGVqkPBJnY8chkjqsCsqt1jDXKZ93JImVFNgE3x/p52bDAmHGya7IQ+qauhYGNbw8c2KJrOyXUgLTPSrseIqZXRNNhUXT+feX1fj4AL2NQdJ9YE2JgMkgtAx4BNsV1TTU/LddGnycr6W2qwMY0Jvr/N9sBTdR4x45HtftbbsgrMqgxurEEu87xWhRSksjPyvXU/jDcRq2Sd0usiWLx+/Tp7+/Zt62ATa4z6ADYuFWHrBpvQKb6YWhkhg1qdYOPzdOM7ZWJrzyYD4OuMXSq7dr5g42M0TZ9JMT3tG9Scej2eqvIALsfS39sm2PjCqw/Y+PbXsviaqntSvquY4RVqc/Iq0vmizk3c8yMNNkePHs0WLVqkwGLWrFnZhg0bsps33Qfwy5cvZ5s3b7Zur1698gKbqgydJp946wIbl/oibYFNVYePSSltGmyqgh/LBjRb6XXfflMGNnUXmuwa2Ojt4ms0bWNDiulpX09SarCxLY3iel/GjAupV4EP8cpVnWtMf9Ur1/uOA7FV1vWEC/ktdcFNk7FK+jXtDNjs3r1bAcW6deuyEydOZAcOHMjmzZuXzZ07N5ucnHQ6xp49e9Qx5s+fb9xevHgRDDa+nTC1O7DqXELBpszTUdXxTOfk2lldY5dcj5HKSHcVbEI9C2VAHJpp0kWwsQGcS/ZdLNgU2y6FF7cOsAmFgeL1cI3xKgObqvMouw9C+klILZ46waaqDcuMtQ4lIdOdMbWJugw2MyC4C1Bz/fp1BRObNm2a8bp4btavX+90HPn87Nmzo6exXMHGtCq2D9TkLkH5t+oGqQtsYjwnbYON/mSZIr6hLrCpAq+y6xtTr6fsuLExIdJfXNuhSbCxrRZfVgjSd5BNtYhr2XFdgKsqfiXmd+l9wrX/m47heh5l7ed7/+l9wuUcXO6J0P5aNQ1V9f2xC66a1v6q88Gm7lil0tkGlwO8efMmO3XqVPbOO+9kS5YsyZYuXapev3fvXnbx4sVk3ppr167N2Ldt2za17/bt25XHmTNnTvbee+9Fn08ONlUemRjDUFwALV9cMxXYpAgsdbmBq9bRCs3kKKa6uhzDNyMr9Gkt9QrqrgbFVrrfZVCtC2zyVZ/zf0O9AD6egLLf67v2WCzYuCwJEgs2LsbYdQXlWGDzGWNixoUyY+V7/+nn4XIOdYJN1TRUFajq/SG26KL87TrWdhFsbFOmTmBz9uxZZeiLmwCESGBH/v7www+jGmBsbMzqaTl58qT6jomJidJj3L9/X71v165dycCmygsSs8icb6R+XdNiMWBj8kL4gk1V4TSfY5QdM5/2k2sWel6pFxp1HVBthQhdzqHMUxTTf31XfY71hMnrecCjj8fLFWx8jVVdK7Xr8FB1XqnBpqyfuk73VoFNWV9xBRsXr7R+Hi79zGV6NhRsygyxyxhkmkaK6Vt6m6b22lSdZ50FT0vB5s6dOzOgpgg277777tRrX3/9ddCPF5iR6ably5cb958/f14dX+JnXABMzkPgZuHChSo+54MPPsh+/vnnWsCmyhC6ugRdbvgqcAkBm6rpm6qBwPSdrsbfFWzKDJ1PgKJcy3xwC41XaAtsYur11LFei8mDVGVoYsGmaORNAY++a4/pRtq3RlBM0L3PcavaJjXYlBkbV2gztbnrvVPWrr5eab1PtA02sdP0scVITWCoP9ykzO6tM1YpCmwENnJw2blzp5p6EgjJwWbfvn1T+8XjEqKXL1+qz2/ZssW4XzKd8u8v01dffTV1LitXrsy2b9+uMqHkfOU1CUb2BRuXJ4QQerZNLZTdrHWDjekmrgtsUqTR+8zj6yBpK6teV+aZb1/SBwIb2Licg2saeWg6cIoUWpfrrceblLWRbe2xMk+OL7S6ppH7Sj9uVb9xXUHZ9Vxcpw/K+ovJs+PavmXv8x3jdBByuX9dvFIhBtknUN8HbHxAxHbexXZJtTxQnVN6env+3b/sdQebHDhkO3z48NTrRbARXbp0aep9jx8/9m4AyVSSz27dutW4/8qVK2r/+Ph46XFkv7zvm2++mfa6ZFQtXrzYGsNjAxvZXDpQCD3rHcmlU9UBNlVPQFWDkWmgaANsTIHLxWtRnEuOiZlKBTZVfanMaBd/h+/gnqr6Z0ymSSjYVA3qvlNDet/3BZu6gqF9lzJICTYuxtdlvDONRa73TpnnzDfzUf9OlzHS5T0h19dn7KhaIDMUbFwSNlzW0mobbMQ2//2a8TCwefLkyZSBf/jwoRVscjCR7c8//wz22NjAJvfY7Nixo/JYUtjPpB9++MEJjnSPjUvDh5S51+c1XYxD1Y0RCzamY4bsd7mBY6fAbIOw7Vq4llWvE2xc+pJt4NHhN2ZwTwE2pgHW1b0eMsVnS3d3SbN2ARt9ysfl2tZVobpsKYO6wcZlqsd12rAMbMrGp7J29c181K+pyxiZqg1iPlN8b94GIeELtnuobEkel0SWVB6qVPWAZHVvZ7B59uzZFLCcO3fOCjZXr16N8thIjI18dtWqVcb9Fy5ccIqxKVMeWOyaMeUDNiGdXDfAbYFNFZQ1ATahqes+02CmpRdMA2NdKfWxYBOT1l7VP30HF/37UwSLV52jSwq07Txcwcb32rp6oHz7iX5cn5ITpv0+19cluNUXDvLjuI5PKWJ8bOObi7F16QchY74PYJqObwtfcO1fVb89JpGgDbApfvaf5i12BxuRFMjLoUUAQzwiOdgIkOTTRHml4FBJCnkRloo6c+aMOr4U7XOBJJPE4yTHkErGPmDj0hlTdHIXr08dYFPlVq46ZugA1jTYuJbOrxNsXAYNl8JovmBTNXjEBM26ZprETkUVpxKL31kMdizryy6F+3zvn9Cy+L5P1VXGvGp6xsd4+NZ5sfXlqnGhzCNQdh19ja/+213AqA6wifU0lYFNqnjK4vemCCJOHatUFsdWXNvRCWxkiQNTVpRp++yzz4IbIY+PMdWqkaBh2SfF+sqmoCR4WUDMJMmKkmNIvZzUYONr7Ew3l8uNUjfYhDydmc47Ndj4PBVal7DvENiU9SWXufXYwT12kNYzk1y8E7ExVXqfMvUx34Ug9e8MBZuQfuRjAH3AxnTersYjNLjV1dPrevwUwcs2SHIBG5f7IbaeTsiUoK3kQ6p4Sv13xS4RlCJWSV7LEwXkGCbvlfwub7BRDbJ5cyXUSBZSjPLpJr0GzYMHDxSsmI4vsT3FJRLEGyPHOH369LT3SQzPmjVr1L4bN24EgY1rBoBLZzB18hTzur7n4WIg6wKbFIHQrt6isoJnZXP4bXhsXDxOvm7t1GDjGwOSAmz0djf1Xd/1kmLApur3hNaysfW/st+WCmxcise5GknTfeLaJnWBjevn6wAb33HDdE2Lr4VUDHY5h1RFTl2/z6dGUzH2Rz92ENiIpEie1IXRgUago5gxFaONGzdOpXUL6EjxP6lwLK/p1Y3FQ5OfQy5ZLFPq1ojn5tChQ+oYP/74Y7Z27Vr1PklNd1WdYBM6feMTh+DS2V3e7zN/b6PpLoFN1dRJyNRb6BRDDNiknF5w+U35024xwNA04DYFNvrvqnJ7m9pAb0Of+8dlaiEkXsHWli5Bn7Fg41o8zqU/m65narBxgfoQsKkjrtI3lqQq+DokPTtFfbGmwUZP+sjPSbc7wWCT6/nz58qLItlPElycUnI8yXwqgpPE3kjhPdPUkw42ot9//31a0UDZZLXwY8eOeZ2LfC6mGJXvBS9+V9X8ZyqwcZkDDQlMTBGgFwp6JoPjk9brAzahsRNlfakKbPIb22dgTQE2+ffJv3mhw7I29wWBqt9jmu6yZRamAJsqY+GTFh1aH8h1Ve2q65diiRPf8ci1H4e0WwjUF4+VohpurJcz1qsfAjYh/SAmziaF58sGNnp7RoNNExJ4kqDkW7duBR9DUtXlGK6rgpvAxnWgi4nUN6Xyheb8pwAs398W+luqvtsn0K3qqdAn+6WOWkE+16bKsJnAJqbir8tv0jOS9O9zud6xU3xVU55VMQemfhoSWBoCNilqnZTd+ynAJmQB2bz95f2ui1WmBhvfFcZ9PUIpwCakbaviMF1LhIT0xxSr06cCRFM2q+khxhtsJGDXZxuKdLApM0a+YFNVVTL0ScUXbFIEfbYJNlXfbXJbyvvKDHkdAdqxYGNqT5/ziI2jKi43ELpeWizYVF3rqvRX0+f1+9DnPk4xdexjtMuOlQJsfAvfVXmZXYLgQ8fSkBXGi+dX1R6pM2Fj2zZvB1tmZAjYxPbtpsDGVAjUtL6iN9gU072rtph07z6DjY/bucwIxLpIfcHGd6XbsqDM4jm7GDqfaTVfD1aZ27ItsHEd3EzHNw1yId5EF7CpWlajqv5Ok2CjX1vfAOmQ+AufKclYsCn+jlRgE5px6TvuuVyvkAU9U4BN1edTZ8IW49Ji2jak9lmsjYoJIE4BiGVgU2xPwMYDbFI+FbsM8D71RlKAjatr0hdsXNojdmE/n6dCn4JnTYCN73pgpvN1HdhSTBO5DFA+010hYGPrq6aK0q79LRXY2IxVSDyWS+XpshWvq9z5LutwpVjU0Xa8KshKVUCvrM+5gk1MsVTb8ULa1uZ5Dl0qw2dWISaAuG6wKR7XG2wkEFcqAhc3Sb0eGxvLli1bNgU1Uu/GdR2mIYNNVScrG+xinyRiwCa0k9c1reZikEOr9Lquop0SbGIG45AUYJ8Braw9QjJZUhV6dLnWcn4ua2eVgY1PYKnP9UxZV6rs+1KATeiinS5ZfK6eJ9cxLOYhoWmw0YvqxYBBTGZkXbYhFo58bF7xvfqyD8mDh9+8eaOyjuTAd+7cGRTYhFB5VUcoS6lsEmx83I0uhc/KVqFtGmxs2QMu3o7UtYJiBsIqsCke02c9LZ+2du1TVdezLrDJj61narkcPwZsQlefD70ny9ovJdj4PqG7lidwvc4pwcb2XWXn4Douut7PxUq+vusvpQQb3zif2ADi2CxQU7+U35C3o36v15IVJanfcmBZQXtUwSYkla4su8F0w6YIvAuBIN+KrinAxmWwjVkwsmmwcR0ofAKFXaqE+oKN3h6uv9cnbTM12BR/h6shsv3mkJovLvFpLmBTdq3KrkNsAcbQKsll19UFbEKzDl2NtK1PlX2HK4y61n4KnYYyTdvFlHzwnRaNWevMp0/5es/kPfmm2+vkYFNcBTx1bZs2wcbn4vo8wdnoveqmTgk2PgRfNnC6gE1o5oEr2Oj7TXEXVenTtsEkFdi4GkwfsHEZhH3X5ylrS5cn05SLqabwKNium+1eSQk2vudddq1iYvPqBJuqgoL6/Z2inEKs0XQFmxBoivGSVHn3U4FNaOXjIrD5pLiHgo2PPasFbL766qspsBHvzRDBxmeZ+apiRDawcQ3itA2SPh0hhTeq7PtSpFSGgo2tvomLqzx2SqUOsCm7VrGp3D4erLJ+EgsuXQGbFAt6hp536BRJLNjEpPfa4Nr2u1OsEec6ztkeUsrOISXYxKxcbfLIltW1SfHg7dLG+TSQbK7xTZ0EG1ljacWKFTM2CR5evnx5tmDBgmmZUVJcbyhg49MxqzqZXnMjJK4kJdikuCnKvi9FSmXZ73UNeHVZLdvl9din25Ay8Pnvjgkc9QUbX9Bz/Z4YsEmRfqqfX2gqcCjYuIwhoW0Qkuoe8zTvcl62e7fqWqZcz8jWd8s8nbHTXKH3fNW4a4oVrCNUomoayDVmKIWn12esrTXdO3YhzD6DjU8tiZAgztRgEwpttiefULBxqUBqGhh8wca1zkbfwCbV2lYuQeAxYBNjXFOAjX7dXMAmpL1cvQa+92RM/auQ5Sp8VBaE7bogaWh/LRs/QjzNsYHJKab3TN9hihUMzdr1BZu8X5mm+GPrIpW9rxNgM6TA4byhfIyR67xtqOvaZXAPzXRKATZ6x6sbbKriS/T6B67nlzqlPmRKwmcuPcUTcJkRcO23Ve0S41lqEmxSGlbfKYDQVa1jwcYHvlyf7F3uzarFM2Pbv6xEQGxMmU+sUCjY2KbUY8EmxGNk84LHFqdsDWxkUcmyTVbUfvjwYTY0pQQbn1Vz2wAbnyeH4vmHFrpLscqvy1x9WX2TJsEmdsmNGEiMARuf6qY+S2/4gk2Kp1/9/Gzfl2Kl8tBpnrrAJtUima7n7ep5Nn1fyqnAkGzOVGATM71XBTZlhTtTPFiZfoOtUF7ouoYu7eQDh71YBLML+qd5i4MrO5ZlLYROWaQEG19DawvocwWb0Cfwspuj6qbOax7k+13L0NcBNrHFsXwCsUMNhetK6SnAxjcou2tg43M+rk/VvotqpgSbkGkKmwfGZZX0sj7p6j2KjdHrA9hUrYVW13hfBVbFa+RSiiMF2FR5pACbALBxoVyX4L6Y9ZtiC63ZBlGXLIgQI5CiVkQM2OTnkLeLK6x1AWz03x2T9ZIKbHwKPpruly6BTR746OuFjAUb12BL2z1pMxZV41SKGkGu/VXaOWZaMlW6fcgadz73S5XRjZ3eSwk2MfePzWMUWmOsFbCRJRGWLFkSvC1dunQwYPOfF69JUjXUl9xD4llcb2afQbQpsAmtZhu7Am1V/Y3QxRxjntrrABtXQ2GKbfCNE+gy2OjnZ7svXYyFT7vEpia7tGHbYKP3PxdvamixQVcACZ0OS5UFKMfJjxXiBSsDG9PUueuyKiF1ikweGtc6ZTFrrvnYqUqwcc2AGvoimL5gY7uYLisjpwIb1w7lC1u27w41RimKN3UVbORY+Za3bSzc+iwwGWooTOfoC8AhS2/EQnLbYFN1PlUPG/J5+R6X6WrT/eByvnXXCIoBG31/qiUtqs4hNCvStQ/ETu/ZPCZ6BWP92uXF82xLSITUKSpONeafd03TjolB8xk3ARtH/cM//6s35VatPePSwWNc5K6DlG+wYIg3yjWlMhRsYuewq1bMdlkJuywLKX9i6wvYmI7he959ARs9fda36GFou5QVP5T/y+Y7XRgLNikyzvTjV10v15o8dYKN7fN1gE2Mqupx2eLx5PeF1LsxKY+bcl1I1MdD1AjYiGQhy5gNsJnemX07uI2uYyvIxjxN1Ak2oesPpQQbl1W/Q1zcpqkkl/l2X7BJYShM18S3WqnL0htdBBv9t8UG47oaOb1fhFQ3jwUb34U6Xa6dy/UKzfByvQZVD0+hWZFdABvbflOwr/y2FPE+rnbK58G1UbBB/6G/XzPuPZjqBi1lPEZdYBPixvcFm7LMg7bAxmQQ6gAbfWDx9dq5BOqlABtTX/U9bxdYCFn6IcaVbgOJMriPreRb9r0hgdllfd7lOKlqhdQBNjZDXTUtFrvmVGhWpC/YhE7vlfVZW18sxvUUzy02nT/mfq0am2OqqgM2DYGN3oFCijTZPpMKbFIWmAutr5KiKmVstVQTDLhki/lWPNafonwNmF5Lwve6h4BN/ru6CDahqbM+YONT0C60XUJ+kwnwfMGmjsBs/Ri+6yj5BsPGgEvV512/v6zdUkzvFftOWXp1sW/Z6syk8h65evp8+nbZdWwEbB49epTdu3cvu3v3rtrk//nfk5OT2bFjx9TaUUPR3/3LXu+BR78QIYOXrcOkqogaWhHTdHN0BWxC3av6+cWm1OsVpk2FrXzhVo/DCAWbkAJ7vudtg83YgNxUYGMzAr4emRgPXH7+IU/RpjZyLXvQZI0gl+sVOq3mOo6FgI1PQcomwaasgrppmQPbFus9cv2NPlNfrYLNwoULRy54OAXY+FQcruowqcAm1EiYDEHoCt4hK0bHdPo2wcalSmfZzV5s45AqzT5gUww8DAGbujKNmgab1PETpuOFPEXXATYp4pdCwMZ0b/sAQUwRQFu7hX5/aNan74Nu1fXTA9FtSzGkku86fJ0Cmw8++GAks6L+9l//zdtw6jdryFOZ7akhFdiEzreaPld1LNv+FEWwUswb68Yltpx+FdiEFPRz/XzVkgg+SznIsXyeXquuV2zRu6bBpspo+kKJfrxQw2f6nEufbTqV3uX+NnlcQgtChizhUTUVXfX9TYGNPr1dFiNV/M4mwca3EnYdY7w32BTBZdmyZVP/HxsbU1NPc+fOVX+vWLEi+/PPPwcDNv/po/8R7SoOndusE2xC6yuYBqvQwnEpUiq7CDZVbmFXwxECNrGufb3vhGTL1AU2KbxzZdenypgUaxL5eMFsDyt6DFWM+z8WbFJBoy/YxIJF7BIefQEbUZ6I4gI++XUs1p8p3tN1gU3Iwrmtgc2zZ8+mQGZiYkK99vnnn6u/v//++6n3jY+Pq9e+++47wMZjPQ0fOEm1OFwobJm+P3RV4a6ATVmwd2qw8RlYbBVHfcEmZo2qlEtHdAVsTG77silbvSZInpIdG3wfChOmvueSMebqsUkBNvrYV3Zv6tegyUrXVd9f9RBS1l9TecF0uHFpe+kXJo96yowo1zHH5YGoFbB5/PjxFNg8ePAfnV4ChuXvVatWTb3v1atX6rU5c+YMBmxCACDEILl+dwqwialZYRqMfcCmOGi6dtiywSNFpL/urnYxOK5gY8rACZmOdPX4hKYC29ojxKtga5vYhSXrBBvbfZBXcM2/O/dExGYVhvYJF7Cx9dkmPTYhYOPjMXUFm5BFMn3KCjQNNlVjc94/9ftOtjxTLbVSPEy1AjZPnjyZApv79++XQszs2bPV6wJDgE0c2ITEs/iCTciaIb4BkKELTTYFNqFZbC6pl3qMVeh0ZNn8elVbx4BNysB3F69AE2Bji0fwuadDswpd43t8jXks2KRqW9dU+rJxrslK16b3+Hx/EzFhvrLFEtUJVGXry8WsQ6hfn6Rg8+bNmymwEQ/Ny5cv1et5ltSpU6fU38ePH5/h2RkK2PhOI5lucN/OXRfYxDxJlIGNb22SUQCbfI47r0Ph2wd8wcbU1r5GWC/2FZM95xsfVnatUxUY0zMVY9vF5x4yeYtCnqK7CjYh4BZbHsMFbHyWluk72DStFMuwuIJNlbyDhyUoOIeW9957T7328ccfT8uEKgYY5/DTZ8XUIYh1N9sGmxRgE3PD6Tey77pKxZvftcOmqKjr88ThO93nkuaYt7NvH4gBG5+MGRfj5GPwug42IXBhgpKY+JgYo6f3+9AMpNRtGws2+v3n0ja2c3cdv8vKc1T1edcp6VEBm7xf+V7D1sDmxYsXU9Dy66+/qteKQcXFbcOGDYO4YDFTNqYbPNaT4OOWqwts9Bs5ZvmBmKJxsR61psEm1mPoChim+CnfpQhMwc/6asIhT9FdARtTu7q0i22KOfSBRY+FqBtsmmjbELDRjZqv98j2/hRgU9UWZd8RWxW9zw4A3/7UGtiIJK5m+/bt09K5z507p+JshgY1sWCjB5CGDGAhgbounSFmMTQ9ZdW3mF0OAT7esLrBRr+pQrM56jDAvsHHoYGlLp6J0PPOz7crxtcENq6GJ0UV1zxtV7ZUmXwubdNE29qg2OeJPz8XV5i29SvX8Vu/P3yg1RVs6oxx6RLY5Nc6psZTTLhB8rWiJMBYvDpDdbGFRLWH1C6x3XC+lUpdwSZkEPMFGxME+GRm2YrEpSpZnhpsUq7Joq8R0wTY2OrnxHobu2J8Y8AmhSc2hfSHk9i2TZUO7JNxZuuzqdYmcx2bYuqOATbmsbAOsHF5iCgFm2vXrqnspq1btw6q2F4Kj4nvTR4aW2EDqxCw8V212BfYfMAmP+/Q2ip1gI1+Lr7TfXWDja8h1c/L1yVumnLxbV8b2ORGy8X41hFPZWvX0BpVTaTxurRvSrBJ9TAYWhQy1RIerg+mtjXZXAyp61pJqWvHdBVsUte+Sg42xZiZBQsWZHv37lVemVFS23OkIRlILjdV7CBmq3NSNnjo55MCbFJV9tSNqS881gk2Jtd+DNi4PjnGZu6Y7h2X31B3oLipXX2hLZ9Gkv7elsHSr6lL2zQBNiGp9Kb+FrsGl83j7Qryrv0CsJnZH0NqX7UCNsVt6dKlqtpwU1lPr1+/zt6+fdu6u7eNjmm62F0AG1sBujL40wfiFEW4UoGNPjh1CWyKJdFdY7X07w/pxzEZUTHexqbAJv+uvI377k3uCtiEZpyZYslil/Dw8biH1h0DbGaO7yElIhoBG9GBAwcqV/OWFPBLly7V0lBHjx7NFi1aNJVKLkHJN2+GG6/ffvtNHevTTz8Ncq+1oZAMJB+wCQ24tWU+uIKNvC9FrYo6wMYn6LEKbGICmm3n5vv06xpYWnWNfQfmPoBNn6V7I7oCNiZICC0x4Ao2tt/l43EPXdMNsJl5v4fErjUGNrkePXqUffXVV1OQYdvWrl2b3b17N0kj7d69Wx1z3bp12YkTJxRkzZs3Ty20OTk56X2858+fq4U6AZs0cSm2TuyzQncKsAmt/uo6sLmCjW1V2zrAxsVzEpIxY/refG2kkDgSfXrPdZVwwMb/HtQ9qHUbD997yeX+Nk25hkxjFPuMT/anCax849FGub/aEg5cxxtb3/S1V0FZUbJMwqFDh0ohR1K/P/nkk+AGun79ujrOpk2bZrwunpv169d7H3PHjh1T5+cKNqlXZo0dJHxXWrYZs5h1oqrAxnUhS2lP3/ilKrCJDeIMmWM3nVOqgGa97XIYDKnrETrApiqCp6+tVNYudaf2DxFsXBfabaptQxZ91ceUfJHQkL4W4jExgY1vPFqdU9Jdl83rHQJGjYONDjmHDx/OFi9ePANuBEBivTUS56Nr27Ztat/t27edj/fzzz+rz+zcudPbYyM329/+67+1lvlQBjZVN70L2IQCW0ihstiUTlNGzaiAja9SgU0bfRew8TcExXspBBpdvWkh/c/1/o6pyGw7f59zMHkcfOPRRhlsTNfdx750BmxySdyL7sGJAZuxsTGVam4KGD558qQ6/sTEhNOxHj58qOKExIN05coVb7CxNVQbxsE3ja5OsLGBgM8AEAI2+vtTliw3BS9WtU8fwMa3LkddYOM6bQjYxD1chLRt6j4bGp+l34Oxa5OF1qPxvVcAm2xqPC5W1fa5fp0Amzt37mSrV6+2TkeFgo3AjHxW4mFMOn/+vDr+nj17nI63ceNG5VF6+vTpIMDGJ6bEBg6p4lJCKrDGpHT2BWxSTPWlGGBMfaZpINC9X76pt4BNP8Emj+uSc/EZY/QptdglPHzHmGJMWey6aKPYX/MSCHlySGh/LvZB3wdxb7C5d++eCubVF7vUN4mBkfeGSFLI5Rhbtmwx7r98+fLUtFKVvv32W/XePGsrBmz0rUmF1IzRn5qKN2mq6ZsQt6MJHnwGHf33pAQb0xx7VfvUmakVI1vBsaZBqzjl6JoCCtjEeU1DwKYLMJ6fXw4XvuUF9HsxdHotthI7/TULqrIcCjYu9nkG2Ny/fz/bvHnztLWgTNvKlStVcG+s8oU2peKxSTmcjI+Plx5HMqdkOuvzzz+f8dm+eWxs9QFCwSYVDOhz0i7HiknpNP2elAUUQ7IiABv/Nq0KymzKqzBUsAnxhnUlUSLGOJYVAK27vwA2aT2QtXlsJHBXUqvLYGbZsmXZ6dOn1cKYqZR7bGxgk3tsJMvJJino98477yjYKp7b0MCmyujWDTa5Ac3dzS4DkSmbynUgrQKb2LVYTOmmfQUbW+pl0+cTkj0H2MSBTYg3rItgEzNOyu9s8jfVudwLYJMYbEwwI4G4ku4tMSt1SGJs5HtWrVpl3H/hwoXKGBupuSPvkYytixcvTm1S8C9PI5e/XYv9dQlsfIxuE2Dj+2RligtwnQ4zeWdiVil3McJVxzQZ6y4YiZD4i7oAyzT96HruGAp3LwVgA9gANh5gI9NQ27dvzx48aKbs+JIlS9R3mnTmzBl1TlK0z6Y8Jbxqq5rO6grYmDwJvgWniu9te/0rPUDQ9RxMQJaysmdIuqfp+1OmoPcdbEIX08RQhD/0jCrY6OODTzwiYDNCYJOykrCPBDhstWryWjRl8TxXr15VAKRvuSdHlmaQv011croINiFVfl3BJtbLEToAFYNKXYGkbrDRV0h2CWruKtjo3qQ2zydmQUQMhT/YVN0HprbtSp9NNU6GVDYHbLoJNr5ZvMnq2KRWPt20a9euaa+Lx0iWVZDYGV0SdCxbmfoaYxMSp1AGMCmnb0Ik5y3fK5sPjFStPZRiLRbfbK2+gU1bK9QXM6Nc+lzVgqcYipmwD9hM/w1Neqa7Gms3NLBx6ZudBRuR1J/J07oFdE6dOqVWFZfXJD6mKAkWdknD7ivY2OIUUoBNnxZmC11U0ddQ5MUDXQbDqto6bRoJvc/4TPulHrDy+hau7VHnSu5DkumhJ6RthwA2Ovg2Oc4BNoCNk549ezZtfSfZJPbm7NmzM947dLAJXYMDsAlra9P/Q8GmDZCwgU1bHjrXtgRs4scGnyKZQwMb3TCm9uYCNoBNMsmq3AIkt27dau0c2gYb/cYJAZuigR0C2OQDRdsly7sMNiHxF10RYBM2NoTGL3Wlz6bsN02ODYANYNM7dRFsXJ7MbINVX9cvMQ0UbRfAAmwAmzYl1zOPJ5EtNH5paGDjO1YCNt297wGbAYON/gTiEjw5ZLDJB3HAxu369636KWDTbNsOBWxC1nurC2yGML3Xx74J2PQUbPLF5UYNbHRXZddW0a5jmYcY6YGlgA0aOtiYvJSADWAD2HQUbPQb1uVGqQKbvq1f0kewaStYV2+vvsHAUANcu9q2XYHxOsCmid8D2AA2gE3k07dr2u6QwSZvg7aNdpfBRh9wARtkM8Jd6rOpxskmSxx0uZ4VYAPYdBZsZLAp1lhxCQIdGtjo5w7YuA/2oj5lwPEEDNjEPvw0GTDf5Vg7wAaw6SzYFA2Uq0wdou9lvosd37fUdlNg03Zl56EaX8AGsHEd9/ICfU2NcYANYAPYNHiD64ZgKGCT/6a2DV2Vx6ZPXhLAZnTbtq+1rUzKjV+TMAHY1Ac2vtAN2AwcbEyGYEhg04WlC6o8NoANYAPYDF+ADWAD2LQINn1PmbWBTVsDB2DTnPHFUAA2gA1gA9iMONgUIWYoYFMcQLqQogrYADaADTK135DilgAbwAaPTUMDSBcWdzQZ2z4uYQDYADb0WcCmi30TsAFsBg82pgJcXQYbBNj0wQgXX0OADWAD2PQKbLqQIl0H2LT1lAnYADZDMML02XTjUlfrWfX1vvf1JgI2Iw42fcws0Rd2BGwAGwTYdBFsqGcF2AA2gE0U2HThfACbege4oaxnBNiMHtgQtwTYADaJZIqn6TvY6GvBADajY3xx7QM2gA1gA9gANjPApu/ufBPYtLnmVRnY9HEtLsBmtMGGPgvYADaADWDT4m/qQgVlwAawAWwQYAPYADaATbBMq/e2CTamqT2MBGDTl7bN25E+C9h0FWx8k0QAG8BmEGDTZto6YAPYDMEI02fra1PiltKBTai9BmwGDjZDyCzRwabNIGgdbIrghZFICzakz9ZjhOmzgE2X73vABrDxApu+Ggc9cLhNQCsDmz6unt4XsMG1Xw/Y0GfDRHYkYAPYtAA2+YA1BLDRqw8DNoANAmwAG8AGsBkBsDENWEMEmzaNHGAD2AA2CLABbACbFsFmCMZBzlt+jwwmbQ/EgA1gA9ggwAawAWwAm8FIB5u+r57eVeNL362vbemz9YINAdmADWAD2AA2CLABbAAbwCaoHQEbwIaLGyndKGAk6gObrsRVDc0I02cBG8AGsOk12GAcAJshgA0CbAAbwAawAWwwDoANYIMAmxpEEkH99z1gA9gANoANYIOcwMa0LAgCbAAbwKaz0jsFxqFesMFIADaADWAD2KS570OW+wBsABsE2AA2gA19FrDpPNi4tmNvwOb169fZ27dvWzvGEMGGgDbABrABbAAbwAawaVhHjx7NFi1apE501qxZ2YYNG7KbN93jFp4+fZrt2bMnmzt3rjrG7Nmzs48++ii7c+cOYAPYJJF+42EkAJu+GeEi6NBn07QpsXaAjVG7d+9WJ7hu3brsxIkT2YEDB7J58+YpSJmcnKz8/PPnz7OVK1eqY2zfvj07ffp0tn//fnWM+fPnOx0DsEG+YIORqB9s6Lv1gU2bC8oCNmjQYHP9+nV1cps2bZrxunhu1q9fX3mMQ4cOqWN8/fXX016/cuWKen3r1q2ADaoVbDASaQY46oIANoANYNN7sMm9NdeuXZuxb9u2bWrf7du3S4+xceNGBUEvXryYsS/3/Iwa2DDvC9j0RRQ8A2z62qaUfQBsjBobG1PxMKZg35MnT6oTn5iYqDyOBAybXpNjL1myZKTAJu8ogA1gA9hghAGbtKKeVT1gE9KOnQQbgRnxtCxfvty4//z58+rEJSjYV+K9+fTTT9Xnv/nmG8AGATaADWBDnwVsOgg2oVWxOwk2L1++VCe2ZcsW4/7Lly+r/Tt37nQ+5o0bN9Tx5syZo6DpyJEjXuck36dvgA0CbACbIYCNKVAbxYEN2ZFp7nsXsHGxz62DjXhVyoJ78+Df8fFx52NevHhRxeYI3AjYyDTUL7/8MnIeG54i6gcbU9Arih/ggPL6jDBgA9j0GWx65bGxgU3usdmxY0fQ8SXoePHixeoYt27dAmxQsjYWTwJGArABbGhTwAawmSaJsZETW7VqlXH/hQsXgmNscn3//ffqGJ999hlggwAbwAawoc8CNoBNvZKpIomHMenMmTPqxKVoXxUgPXz40LhPpqbkGDI9NUpgo6ckIsAGsMEIS7/N/7775K80UICoQA7YVEriZ2y1aiRoWPZJsT6bJKVbYmlkysmkn376SR1j165dgweb4qAF2AA2gA0CbOoHG5II0tz3IYDYWbDJp5t08Hjw4IEqridLJeiSoONiMb7NmzerY4iHp6hXr15la9asUfuuXr06UmBDuf/6wQYjkUYsKgjYADaAzaDARiSVg/O0bgGdU6dOZUuXLlWvyVSS7qHR07xkLShZE0qmtA4fPqw+8+OPP2Zr16718tYANgiwaR9sisYYsEkHNtKW9FnABrBpSM+ePVOZT8XcdIm9OXv27Iz3msBGJCuBv/vuu9OOsWDBArVquI8AGwTYdAdsmEZNa4Tps4BNF8FG7vvBgU0uWaVbate4pmab9Oeff2aXLl1SoGNapgGwQSnAJocbjARg0ycjXOy/9FnApkv3/WDBpgsaCthQPA6wAWxQGdggwAawAWw6r+LAVTS63Gz1gA1Pv4ANYEObkh2Z5r4PmWUAbAAbVCPYIMCmixLgBmzqGwco+1AP2LjaLMAGsEGADWAz4t4F+ixgA9gANoANAmwAG/osAmwAG8CmbbApbtxsGIk+DXCUqK+/z4pBRmnApvgQyVgL2AA2gE3vVBzEAJv0AxyLCgI2fQYbkggAG8AmsYodA7BpDmwwEnFitWTABrDhgQawAWy8wIabDbABbDDC9FnApsv3PWAD2AA2gA1gg4LBhjW40rUpYJPmvg8JwgZsABsE2AA2gA1gA9gANoANYIPKwQYjAdgANrQpSQSADWAD2PRSpswzjETaAY61dwAbwAawAWwAG6Xiky43G2AD2CCbEabwIWAD2AA2gA0CbAAbwAYBNoANYAPYDB9sMBLpBjhpX8AGsAFsRg9sQoKwARvABgE2nZS+UCNgk1amgHf6bPo2ZayNu+8BG8DGGWxIRU4rU4A2RgKw6ZsRJtssfZsy1gI2gE0NKrr2uNkAG8AGATaADWCDABsE2LQ8wIUEESLABrABbACbEQEbMnbqBxuMBGDTZZniwuizgA1gA9j0EmykowA2gA1gA9jofZYpvvRgw1gL2AA2NXcUbrZ6ZArQBmwAG8CGNmWsjbvvQ7LLAJsRBRviPwAbwAYjDNgANoANYAPYIGewwUik67f59ClgA9gANsOXaYV0wAawAWwAm8ENcCFz7cguU1wYwJgebBhrARvABrDppUyZZ4ANYAPYADaMtYANYFNzRyH+A7ABbBBg01ybAjaADWAD2AwGbDASgE3fjDDtCth00V4BNoANYAPYADaoUqa4MNoVsOkq2PgUOgRsRhRsmCZJK1McE2AD2AA2gA0PkYANYAPYDAZsMBKADWAD2AA2gA1gA9gANsgINiFz7cgu0/QpSg+LgA1gY9Xr16+zt2/fRh3jzZs3ahtFsNENA9MkgE1fBzgMMGAD2AA2vQabo0ePZosWLVInOmvWrGzDhg3ZzZvuwViPHz/O9uzZk82dO1cdQ7YVK1Zkx44dG2mwwejWfzMiwKZPYMMq1PWADd7xNPe9TwXnToPN7t271QmuW7cuO3HiRHbgwIFs3rx5ClImJycrP//kyZNs6dKl6hhbt27Nfvjhh+zw4cPZqlWr1Gty/FEBG71wFGAD2AA2oy3dywjYADaATc26fv26OrlNmzbNeF08N+vXr688xpdffqmOceTIkWmvv3jxIluzZo3ad+PGjZEEGwTYADaADWsaATaATYPKvTXXrl2bsW/btm1q3+3bt0uPId6aOXPmGGNzTp06pY4hHpxRABs9Wh/VezNiJACbvrUv9VbiRQVywKZUY2Nj2ezZs41QcvLkSXXiExMTpcc4f/589vPPPxv3nTlzRh3j4MGDIwE2cnNJx8g3lF7FOCbaGLABbAAbEjUAmykJzMh00/Lly63AIicuQcHBHozNm9UxLl26NBJgI+IGaw5sMBL1DXDEggA2gM3ojKWDAZuXL1+qE9uyZYtx/+XLl9X+nTt3Bh0/n4Zau3ZtVEMhNA2WC9N9GAnApi99VtpTjAZTJmkeHgGbesDGZ0ztJNhIcG+eyWTSlStX1P7x8XHvY4u3R6a4Fi5cmN2/f9+rofQNIV1km9U/wAE2afsrhrdesGFMqB9sXOxzZzw2NrDJPTY7duzwOq7E5MjnpC7O77//7vVZQAYhwAYhwKZ7YONirzsRYyMnJvVmTLpw4YJ3jM3evXvVZ5YtW5bduXPH+5wAG4QAG4QAG8AmWEuWLFGp2iblGU1StK9KsoTCRx99pN7//vvvq6J9IQJsEAJsEKoSGXyAjVUSP2OrVSNBw7JPivVVSaaz5L0CN69evQo+H8AGoW4McKTSI8Bm2NILyg4GbPLppl27dk17/cGDB2pZhZUrV874jAQdy5ZL1pkqi9UBbBACbBACbLoPNj6LiXZ6raiNGzdOpXUL6Eiadr7208WLF6e9V1b/LkZDP336VE1l5WtNCdyYtuPHjwM2CAE2CCUHG/oqYDNDz549U5lPxRQuib05e/bsjPfqYHPu3DljCpi+uQYgAzYIdWOAw1igvsA4fRWwser58+eqds2tW7daOwfABiHABiEfsKFQJ2DTaQE2CHVjgMNYoC6rWM2ZvpruvvepjA3YADYIATYIoU7BIWAD2CAE2CCEABvABrBBCLBBCAE2gA1CCLBBCAE2gA1CyF2SCQHYIATYADaADUKDHeB80j4RQsN4oJEFRgEbwAYhwAYhBNgANoANQoANQgiwAWwQQoANQqgGsLn75K+ADWCD0DAHOMAGIcAGsAFsEBrMAOeTHYEQ6p/kHgdsABuEABuEEGAD2AA2CAE2CCHABrBBCAE2CKGGwCbWXgM2gA1CgA1CqBVJajdgA9ggNBJPbv+494pXPQuEEGAD2AA2CHUWbHwLdSGE+g828kAD2AA2CAE2CKHeCrABbBAaGbDxyY5ACPUfbJYf+Q2wAWwQGoZMc+2ADUKADWAD2CAE2CCEegk2vsuoADaADUKADUKos2Aji+ECNoANQoMFG4TQ8CXTT3hsABuEBv/kBtggNDoPNQI0kkDgmwkJ2AA2CAE2CKFB22vABrBBCLBBCAE2gA1CqE6w8S3UhRDCXgM2gA1CnZLATGg9C4QQ9hqwAWwQAmwQQoANYIMQqhtsfOtZIISw14ANYINQpxRTzwIhhL0GbAAbhDqlvI6FQA0reyOEABvABiGEEAJsuqbXr19nb9++jT6OHOPNmzeADUIIIQTYNK+jR49mixYtUic6a9asbMOGDdnNm+EBhFu3bs02b94M2CCEEEKATbPavXu3OsF169ZlJ06cyA4cOJDNmzcvmzt3bjY5Oel9vH379qnjATYIIYQQYNOorl+/rk5u06ZNM14Xz8369eudj/X8+fPsk08+UccbMtgAX7Qj7Ug7Itpx1Nuxs2CTe2uuXbs2Y9+2bdvUvtu3b1ce5+zZs9mSJUvU+z/99FPABtGOtCPtSDsiwKZ5jY2NZbNnzzYGDJ88eVKd+MTEROVxBIJWrFiRnT9/fuoHAzaIdqQdaUfaEQE2jUlgRqabli9fbtwvkCInvmfPnspj/fHHH9PgCLBBtCPtSDvSjgiwaVQvX75UJ7Zlyxbj/suXL6v9O3fuDPrBoWDDxsbGxsbG1v2tc2Dz4sULdWKSmm3SlStX1P7x8fHGwAYhhBBC/VRnPDY2sMk9Njt27ABsEEIIIdRtsJGYGAGQVatWGfdfuHDBOcYGsEEIIYQAm9YlKdpz5swx7jtz5owCFCnaB9gghBBCqPNgI/Eztlo1EjQs+6RYH2CDEEIIoc6DTT7dtGvXrmmvP3jwQC2rsHLlyhmfkaBj2QAbhBBCCHUKbEQbN26cSusW0Dl16lS2dOlS9drFixenvVdW/7aleQE2CCGEEGDTup49e6Yyn4q56RJ7I8sk6AJsEEIIIdRpsMkli1hK7Zpbt25xdRBCCCHUb7BBCCGEEAJsEEIIIQTY0AQIIYQQAmwQQgghhAAblEKyFMWbN29oiAhJ+9GG8ZIsRemPCCHsDGCDgiWLhpLK7q/Hjx+rdcfmzp07VTJgxYoV2bFjx2gcDz19+nRaO86ePTv76KOPsjt37tA4kfrtt99Um3766ac0hodkwWQZE23bq1evaCRH/fLLL9natWunxsjFixdnR44cAWxQfdq3bx81egL05MmTqaKPAoY//PBDdvjwYbUAq7y2e/duGslBUpJBqoFLm23fvj07ffp0tn//flUlfP78+dnk5CSNFNG2y5cvB2wCJKAt7SZ90LRVVapH/6Hjx4+rdhwbG8uOHj2q/l69enXwYtSADaoc9D755JMpigZs/PTll1+qdtOfPGTAW7Nmjdp348YNGqpChw4dUm319ddfT3td6k/l0IjCVCxSCtj4adOmTcpzyLRouO7evZvNmjVLPexJ0dxc4u3K4UbeA9igJJIKzFKJOR/wABt/ibdGVpE3DXyyhIe0qXhwULlk+RMZ/ExPwOK1kekp5K+ff/55alkZwMZfcm+/9957NESE8tmAq1evztj3008/ZR9//LGaKgVsUBJt27ZNxYKcP39e/Q3Y+EvaToyHSWfOnFFtevDgQRrKQRIwbHpNnpgFwJGfHj58mC1cuFB5ZHPPF2Djrvv37xsXUkZ+Ek/NokWLev87AJue6I8//pjmaQBs0kraUtr00qVLNEaAxHuTexK/+eYbGsRT4gWTAE0JygZs/CUe7Xx6VOBGIFE8hx988IH1YQZNl9gXaUN5iBaJh0amRuXvvXv3Zvfu3QNsUL0CbNIpn4aSLADkJ4lJ2rJli5oGkOmpPmVOdEXffvvtNKgGbPz11VdfTcUmSWC7BLXL+Ch9Ul47cOAAjVQhyRiVthKYkTi5PBBbppfl/wKKfXnwA2wAm5GWTE/J9Ik84Yk7G/np4sWL6olO4EaMiExDSaoocpNkkEn/+/zzz6deA2z8NT4+bvQWSvuKJ0z2Xbt2jYYq0a+//jpVukHiEa9fvz61Tzxi8rqAzqNHjwAbBNh0VRMTE6odZU75999/p0Eidfv27SkjcuvWLRqkQhKT9M477ygPQ7HGCmAT3p4mSVkHaU+BH2SXgF/u9ZI+qCvPhpQUcMAGATYdlMwZSxsuW7aMonIJ9f3336t2/eyzz2iMCuXTJ5KJJ56vfBPDIa9L+rL8ffPmTRorQnlgMRlT5ZJyItJOMq1sUg7cfQBEwAawGSlJeXCpkCvt9/7776uifchPEmQoWTwmiSEuBiAiu6SN8ifksg1Pg3u/NEn6qrTjhg0baKSK9pPpZImpMUlSwPOinIANAmw6pDwoTuCGEuv+Ene/DH4y5WSSZFKQdusmMRRSZkDfck+OGGL5m9iQ6j4p8R82g5zXB6KyeLUki0za6s8//5yxT2LnZJ9UGQdsEGDTEeUufirjxilPjRejW5SAYl7B2VTgC7mJGBt/CQRKm8nyHkW9fPmSquIeyjNEpUhkUeLNWb9+vdrXh6lRwAawGQlJfRCZO5Z2W7dunYIb0ybroqBySaaJZEdIe+bxIT/++OPUonl4awCbpiXGVtKRxXMjQa4XLlyY1ieloi7ye3CRKsPnzp1TnpocHFkrCgE2HZLcoC7xDH25cbtgSN59991pbbdgwYJeZEwANsOUZDbqfVIyHo8dO0bjeEg8rwKCAol5O8pDTJ+qsgM2CKFgyVy8FO0S0GHxQdQFSUKAwCGrzMdJEi0kvkvWhpL/90mADUIIIYQGI8AGIYQQQoANQgghhBBggxBCCCEE2CCEEEIIATYIIYQQAmwQQgghhAAbhBBCCCHABiGEEEIIsEEIIYQQAmwQQgghBNgghBBCCAE2CCGEEEKADUKoZ/r111+zvXv3Zp988kn28ccfq3/37dunVl4emmSV84mJCbXJaucIIcAGITQQPXnyJNuwYUP2l7/8xbq9//772aNHjwbzm8+dOzf12zZv3kwnQAiwQQgNQW/fvs3Wrl1bCjX5tnr16uz169eADUIIsEEIdd/Az5s3Lzt58mT26tUrtU88NDI1VYQb2Q/YIIQAG4RQJ/XFF19MGfidO3ca37NmzZqp94yPjxvfI56fO3fuZFevXlXxK/K3j+7evZvdvn3b+Ln79+9nt27d8jrmw4cPs99//z178+ZNNNjcu3cv++233wbjrUIIsEEIDVYHDx6cMvDLly9XEKHrxo0b2S+//JJduHBBwYIOJB9++GE2a9asaZ6d2bNnK1CS+J2ivvzyy2z+/Plqk+P9+OOP2bJly6Y+t2jRouynn35S7z1//rw6p3yffObf//3fpx1P3psfb//+/dm1a9fUlFnxPOT13AvlAzZHjx5V51P8XRKLJJCDEAJsEEIdlBjpouEWQNm6dWv2ww8/KC9JmWSqavHixaVxORK/U9SePXum9m3cuNH6OQEg277Tp09PHe/MmTNTr7/77rsKZEyf+eCDD6Z5fKrA5qOPPir9XQJdCCHABiHUQYlnxWbABVw+//zz7ObNmzM+J68XPRnigbl8+XJ27NixaccoAlIRbHKokM8JKBQ9N7KtWLEi+/nnn7OLFy8qaCl+lwlsZFu4cGH23XffKXDR4ejbb791Apvvv/9+2vEkrkh+19dffz31+oIFC7Lnz5/TeRACbBBCXdRXX31l9Xbkm9S0KUqmfaQOzKeffjojFXz9+vVTnxNwMYGNgEwxbkXAo/h9ErOTS6bCilBhA5vr169POw8553zfypUrncBG3pfvE7AqqghLJ06coOMgBNgghLoqiYcRb4fEzNgg55tvvrF+XuJYBGIkbqc4RSUQYQIbPRBZ4mWKsTZFicck3zdnzhwj2OjTXiIJSC6efw5SNrCRNii+Xw9YLn5OChgihAAbhFAPJAZdKhGLx2Pu3LnTpmaKxl68KpISLtNGNk+PDWx279497TvFO5LvE7gqSqofV4HN9u3bjb/D5NGxgY1UIS6+X76ruBWBT4oWIoQAG4RQRyTeCwED8bDs2rUre/bsmfF94oUpGvvJyUn1ukwPFbOhJDNJvBgSYyNGv2oqSv5vAxsJYPYFm23btlWCjWR4lYGNxPOUgU1xW7p0KZ0IIcAGIdQlr0wRTCQTyqQHDx5MM/YSWyOfLU43HT9+fJonR8Ak3yew0ATYiNdIl6Sv+0xFSfp6MUPMtx4PQgiwQQi1KDHquSFfsmSJsY6NeHOKdWGk6J0OADowybGaBhvZ9AU7jxw54h08bIsPEgn8SbC0xCL98ccfdCCEABuEUJck3pciGEg8jQT1SkViAY9isTvZJMVbJNNWplRqCb7dsWPHtH0yZdUU2EgMkGQrSaxMEWp80r0PHz48Ld1dzuvly5fqX1l2It+XFxJECAE2CKEOqWjIq4rtFWu3FKebcm9OPrVV9HpIzE0TYCNVim3ZXJJ+XlxeoQxsJLurGCNk2j7++GM6DkKADUKoq5ICeTZjLpAixenEa1GUeG0kYLf4XknTFpCRjKr8tXXr1jUCNnIu8r1jY2PTpskk++rFixfTjldVeVjer2eE5QHShw4dIvYGIcAGIdQHibdCasZIXIxM58hiklWS6Sd5r6wj1bTBt2VFSaVk+R2x1YHl98ixpD18F+JECAE2CCGUBGwQQoANQggBNgghwAYhhAAbhBBggxBCkZJKwpKaLpuswo0QAmwQQgghhAAbhBBCCKFY/X8UFjIEmcRz/wAAAABJRU5ErkJggg==;" vertex="1" parent="1">
          <mxGeometry x="545.67" y="170" width="183.43" height="140" as="geometry" />
        </mxCell>
      </root>
    </mxGraphModel>
  </diagram>
</mxfile>
